<?xml version="1.0" standalone="no"?>
<!DOCTYPE svg PUBLIC "-//W3C//DTD SVG 1.1//EN" "http://www.w3.org/Graphics/SVG/1.1/DTD/svg11.dtd" >
<svg xmlns="http://www.w3.org/2000/svg">
<metadata></metadata>
<defs>
<font id="ptbold" horiz-adv-x="1197" >
<font-face units-per-em="2048" ascent="1638" descent="-410" />
<missing-glyph horiz-adv-x="559" />
<glyph unicode="&#xfb01;" horiz-adv-x="1306" d="M33 828v236h162v27q0 191 112.5 269.5t321.5 78.5q156 0 283 -19t218 -54l-58 -223q-32 10 -76.5 21.5t-94.5 19.5t-101.5 13t-99.5 5q-71 0 -114.5 -5t-67 -20t-32 -42.5t-8.5 -70.5h660v-1064h-285v828h-375v-828h-283v828h-162z" />
<glyph unicode="&#xfb02;" horiz-adv-x="1374" d="M33 828v236h162v27q0 85 23.5 150t77.5 109.5t142.5 66.5t218.5 22q51 0 117 -3.5t132.5 -8.5t126.5 -11.5t99 -12.5v-1030q0 -81 24 -116.5t75 -35.5q24 0 52.5 4t58.5 15l33 -220q-39 -18 -114 -34.5t-148 -16.5q-128 0 -197 56t-69 186v969q-32 10 -87.5 16t-109.5 6 q-56 0 -89.5 -9t-51.5 -26.5t-24.5 -43.5t-6.5 -59h234v-236h-234v-828h-283v828h-162z" />
<glyph horiz-adv-x="2048" />
<glyph horiz-adv-x="2048" />
<glyph unicode="&#xd;" horiz-adv-x="559" />
<glyph unicode=" "  horiz-adv-x="559" />
<glyph unicode="&#x09;" horiz-adv-x="559" />
<glyph unicode="&#xa0;" horiz-adv-x="559" />
<glyph unicode="!" horiz-adv-x="636" d="M182 138q0 75 49 117.5t127 42.5q82 0 131 -42.5t49 -117.5q0 -72 -49 -116.5t-131 -44.5q-79 0 -127.5 44.5t-48.5 116.5zM213 756v664h296v-664l-57 -326h-183z" />
<glyph unicode="&#x22;" horiz-adv-x="883" d="M201 977v443h251l-77 -443h-174zM524 977v443h251l-77 -443h-174z" />
<glyph unicode="#" d="M18 412l49 205h167l52 206h-158l48 205h163l75 290h234l-74 -290h196l75 290h236l-75 -290h156l-53 -205h-156l-55 -206h152l-52 -205h-153l-77 -311h-234l78 311h-196l-79 -311h-236l79 311h-162zM468 617h197l53 206h-197z" />
<glyph unicode="$" d="M128 1028q0 184 100.5 283.5t272.5 125.5v185h229v-179q97 -6 170 -24t134 -47l-77 -238q-34 15 -94 32.5t-133 27.5v-352q69 -27 138 -60.5t123.5 -82.5t88 -115.5t33.5 -159.5q0 -195 -102 -301.5t-281 -136.5v-189h-229v176q-126 4 -220.5 25.5t-146.5 48.5l85 245 q40 -23 111.5 -43t170.5 -28v381q-69 27 -136 60t-119.5 83t-85 118t-32.5 165zM420 1054q0 -58 49.5 -93.5t126.5 -68.5v310q-52 -2 -87 -13t-55 -30.5t-27 -45.5t-7 -59zM635 219q99 10 142.5 53.5t43.5 114.5q0 60 -52.5 97t-133.5 69v-334z" />
<glyph unicode="%" horiz-adv-x="1838" d="M108 1099q0 91 28 156t79.5 106.5t122 61.5t155.5 20q83 0 154 -18t122.5 -59.5t80 -107.5t28.5 -159q0 -95 -28.5 -160t-80 -106.5t-122.5 -60t-154 -18.5q-85 0 -155.5 18.5t-122 60t-79.5 106.5t-28 160zM223 128l1261 1327l160 -155l-1267 -1329zM365 1099 q0 -79 28.5 -123.5t99.5 -44.5q69 0 97.5 38.5t28.5 129.5t-29 129.5t-97 38.5q-69 0 -98.5 -38.5t-29.5 -129.5zM1002 345q0 91 28 155.5t80 106t122 62t155 20.5q83 0 154 -18.5t123 -60t80 -107t28 -158.5q0 -96 -28 -160.5t-80 -106t-123 -60t-154 -18.5 q-85 0 -155 18.5t-122 60t-80 106t-28 160.5zM1259 345q0 -80 28.5 -124.5t99.5 -44.5q69 0 97.5 38.5t28.5 130.5q0 91 -29 129.5t-97 38.5q-69 0 -98.5 -38.5t-29.5 -129.5z" />
<glyph unicode="&#x26;" horiz-adv-x="1793" d="M203 395q0 75 27 145t75.5 132t117 114t151.5 94q-54 65 -90 133t-36 144q0 51 20.5 104t66 93.5t117.5 66.5t178 26q101 0 171.5 -22t114 -58.5t63 -84t19.5 -98.5q0 -81 -62 -171t-215 -171q40 -57 78 -106t77 -93.5t80.5 -87t87.5 -85.5q49 51 92 128t73 158l207 -117 q-16 -35 -38.5 -77.5t-48.5 -85t-54 -81.5t-51 -66q67 -57 118.5 -89.5t105.5 -61.5l-154 -207q-57 25 -121.5 69.5t-125.5 99.5q-81 -68 -201.5 -118.5t-295.5 -50.5q-111 0 -210.5 30t-174.5 84.5t-118.5 132.5t-43.5 177zM487 420q0 -99 82.5 -155t221.5 -56q87 0 163 29 t116 68q-112 108 -204 212.5t-162 197.5q-108 -75 -162.5 -145t-54.5 -151zM732 1143q0 -83 81 -176q85 49 123.5 91.5t38.5 80.5q0 51 -29 77t-97 26q-58 0 -87.5 -27t-29.5 -72z" />
<glyph unicode="'" horiz-adv-x="561" d="M201 977v443h251l-77 -443h-174z" />
<glyph unicode="(" horiz-adv-x="721" d="M134 493q0 112 19 235t63.5 248t117 244.5t175.5 222.5l182 -123q-77 -93 -129.5 -195.5t-84 -208t-45.5 -213t-14 -210.5q0 -97 16 -205t49.5 -214.5t86.5 -208t125 -186.5l-194 -125q-101 97 -171.5 213.5t-114 239.5t-62.5 247.5t-19 238.5z" />
<glyph unicode=")" horiz-adv-x="721" d="M27 -321q73 85 125.5 186.5t85.5 208t49.5 214t16.5 205.5q0 103 -14 210.5t-45.5 213t-84 208t-129.5 195.5l182 123q103 -103 175 -222.5t116.5 -244.5t64 -248.5t19.5 -234.5q0 -114 -19.5 -238.5t-63 -247.5t-113 -239t-171.5 -214z" />
<glyph unicode="*" horiz-adv-x="826" d="M93 1095v158h128l127 -36l-108 91l-62 103l138 79l61 -95l33 -124l32 116l61 103l136 -74l-65 -110l-104 -89l142 34h122v-156h-117l-133 37l108 -98l54 -92l-137 -77l-59 98l-42 132l-29 -120l-63 -105l-138 78l66 106l97 76l-122 -35h-126z" />
<glyph unicode="+" horiz-adv-x="1157" d="M95 561v244h357v365h252v-365h356v-244h-356v-366h-252v366h-357z" />
<glyph unicode="," horiz-adv-x="510" d="M93 -182q56 18 98.5 67.5t50.5 106.5q-49 -6 -94 29t-45 115q0 69 49 110.5t121 41.5q91 0 144 -59t53 -150q0 -95 -30 -162t-75.5 -111t-96.5 -69t-94 -37z" />
<glyph unicode="-" horiz-adv-x="792" d="M120 458v252h553v-252h-553z" />
<glyph unicode="." horiz-adv-x="540" d="M93 138q0 75 49 117.5t127 42.5q81 0 130 -42.5t49 -117.5q0 -72 -49 -116.5t-130 -44.5q-79 0 -127.5 44.5t-48.5 116.5z" />
<glyph unicode="/" horiz-adv-x="897" d="M-49 -174l783 1617l214 -101l-786 -1626z" />
<glyph unicode="0" d="M60 712q0 363 139.5 549t398.5 186q278 0 409 -183t131 -552q0 -362 -140.5 -551.5t-399.5 -189.5q-138 0 -239.5 52t-167 148t-98.5 233.5t-33 307.5zM352 712q0 -234 57 -368.5t189 -134.5q134 0 190.5 121.5t56.5 381.5q0 116 -13 208t-41.5 156.5t-76 99.5t-116.5 35 q-132 0 -189 -127t-57 -372z" />
<glyph unicode="1" d="M116 1072l496 371h160v-1205h298v-238h-875v238h304v780l35 139l-106 -120l-199 -131z" />
<glyph unicode="2" d="M126 0v142l118 117q67 68 134 142.5t130.5 155t112 159.5t79 154.5t30.5 141.5q0 77 -46.5 130.5t-160.5 53.5q-72 0 -144.5 -29t-125.5 -76l-117 203q87 65 194.5 109t257.5 44q93 0 173.5 -24t138 -70.5t90 -119t32.5 -165.5q0 -101 -41 -204.5t-102.5 -202 t-137.5 -191.5t-149 -172l-116 -83v-10l157 33h419v-238h-926z" />
<glyph unicode="3" d="M146 37l77 234q56 -26 127.5 -44t158.5 -18q69 0 120.5 17.5t86 47.5t53 69.5t18.5 82.5q0 110 -74 162.5t-239 52.5h-160v150l262 320l128 94l-174 -23h-368v238h844v-153l-304 -373l-100 -54v-10l93 12q75 -6 143 -35t120 -77.5t82 -120t30 -167.5q0 -120 -43.5 -208 t-118 -146.5t-176 -87.5t-219.5 -29q-49 0 -99.5 4.5t-99.5 13.5t-92.5 20t-75.5 28z" />
<glyph unicode="4" d="M18 391v158l698 881h235v-818h241v-221h-241v-391h-266v391h-667zM282 594l142 18h261v292l17 164h-9l-72 -137l-226 -262z" />
<glyph unicode="5" d="M124 31l77 234q50 -17 110 -29.5t149 -12.5q146 0 224 58t78 167q0 118 -91 172.5t-259 54.5l-176 -8v753h758v-265h-512v-251l92 9q108 -4 194.5 -37.5t148.5 -92.5t95.5 -142.5t33.5 -184.5q0 -119 -44.5 -210.5t-122.5 -152t-184.5 -91.5t-230.5 -31 q-99 0 -189.5 16.5t-150.5 43.5z" />
<glyph unicode="6" d="M89 511q0 197 63 360t169.5 283.5t248.5 196t302 96.5l59 -220q-110 -16 -202 -62t-164 -110t-121 -141.5t-69 -159.5q47 51 113.5 88.5t174.5 37.5q101 0 185.5 -30.5t144 -87t92 -138t32.5 -184.5q0 -95 -36.5 -179.5t-102 -149t-158 -102.5t-205.5 -38 q-114 0 -209.5 35t-166.5 102.5t-110.5 168t-39.5 234.5zM361 464q0 -46 15 -91.5t45.5 -82.5t77 -59t109.5 -22q50 0 93 17.5t74.5 47.5t49 69.5t17.5 84.5q0 215 -242 215q-89 0 -150 -35.5t-85 -84.5q-4 -23 -4 -32v-27z" />
<glyph unicode="7" d="M105 1151v269h996v-80l-617 -1340h-279l499 1072l97 100l-134 -21h-562z" />
<glyph unicode="8" d="M108 350q0 72 20 128t56.5 100.5t85.5 79.5t107 66q-110 62 -169.5 143t-59.5 203q0 77 31.5 146t91.5 121t146 81t195 29q99 0 180.5 -25t139 -70.5t89 -109.5t31.5 -139q0 -120 -56 -202t-170 -151q129 -71 198 -154t69 -215q0 -91 -36.5 -166t-102.5 -128.5 t-158 -84.5t-204 -31q-110 0 -200 28t-153 78.5t-97 120t-34 152.5zM369 397q0 -79 60 -133.5t169 -54.5q101 0 162 43.5t61 126.5q0 45 -25.5 81.5t-65 66.5t-88 56.5t-97.5 49.5q-100 -53 -138 -116t-38 -120zM420 1066q0 -48 21 -85t56 -64t78.5 -49.5t89.5 -41.5 q128 101 128 220q0 82 -55 123.5t-132 41.5q-97 0 -141.5 -43t-44.5 -102z" />
<glyph unicode="9" d="M69 973q0 103 34.5 189.5t99 150.5t158 99t213.5 35q252 0 393.5 -138.5t141.5 -397.5q0 -236 -65 -408t-174.5 -287t-252.5 -174.5t-301 -70.5l-61 217q122 14 216 53t162.5 97.5t112 132.5t61.5 158q-53 -53 -114.5 -73t-162.5 -20q-85 0 -167.5 26t-147.5 81 t-105.5 136.5t-40.5 193.5zM345 987q0 -112 72 -168.5t177 -56.5q91 0 148 27.5t90 63.5q2 23 4 41.5t2 34.5q0 52 -15.5 105t-48 94.5t-83 67t-119.5 25.5q-108 0 -167.5 -62t-59.5 -172z" />
<glyph unicode=":" horiz-adv-x="642" d="M207 138q0 75 48.5 117.5t127.5 42.5q81 0 129.5 -42.5t48.5 -117.5q0 -72 -48.5 -116.5t-129.5 -44.5q-79 0 -127.5 44.5t-48.5 116.5zM207 863q0 76 48.5 118.5t127.5 42.5q81 0 129.5 -42.5t48.5 -118.5q0 -71 -48.5 -115t-129.5 -44q-79 0 -127.5 44t-48.5 115z" />
<glyph unicode=";" horiz-adv-x="623" d="M166 -182q57 18 98.5 67.5t49.5 106.5q-49 -6 -93.5 29t-44.5 115q0 69 48.5 110.5t121.5 41.5q92 0 145 -59t53 -150q0 -95 -31 -162t-76.5 -111t-96 -69t-92.5 -37zM174 863q0 76 48.5 118.5t127.5 42.5q82 0 131 -42.5t49 -118.5q0 -71 -49 -115t-131 -44 q-79 0 -127.5 44t-48.5 115z" />
<glyph unicode="&#x3c;" horiz-adv-x="1157" d="M85 574v150l859 478l118 -198l-488 -280l-201 -72l199 -62l500 -276l-115 -198z" />
<glyph unicode="=" horiz-adv-x="1157" d="M95 365v243h967v-243h-967zM95 758v244h967v-244h-967z" />
<glyph unicode="&#x3e;" horiz-adv-x="1157" d="M85 1006l114 199l873 -461v-150l-863 -480l-114 202l489 278l201 73l-199 61z" />
<glyph unicode="?" horiz-adv-x="994" d="M49 1320q83 54 191 90.5t265 36.5q205 0 323 -93t118 -251q0 -110 -29 -178t-74.5 -113.5t-97.5 -78.5t-97.5 -70.5t-74.5 -91.5t-29 -141h-248q-12 114 10.5 191t62 129.5t88 88t92 68t72.5 68t29 85.5q0 72 -41.5 111.5t-150.5 39.5q-34 0 -75.5 -8.5t-82.5 -22.5 t-78.5 -32t-63.5 -39zM253 138q0 75 48.5 117.5t128.5 42.5q81 0 129.5 -42.5t48.5 -117.5q0 -72 -48.5 -116.5t-129.5 -44.5q-80 0 -128.5 44.5t-48.5 116.5z" />
<glyph unicode="@" horiz-adv-x="2325" d="M162 478q0 225 84.5 408.5t229.5 315t336.5 202t404.5 70.5q203 0 375 -57t299 -163.5t198.5 -256.5t71.5 -336q0 -127 -49.5 -240t-134.5 -196t-201 -131.5t-247 -48.5q-57 0 -103.5 11t-79 38.5t-48 73t-6.5 112.5h-9q-35 -46 -73 -89t-83.5 -75.5t-101.5 -51.5 t-123 -19q-53 0 -100.5 21t-82 60.5t-55 94.5t-20.5 122q0 119 44 235.5t119 208t174.5 148t212.5 56.5q77 0 130 -21.5t100 -56.5l68 66h154l-108 -543q-4 -23 -6.5 -42t-2.5 -36q0 -48 21 -69.5t62 -21.5q56 0 111 23.5t98.5 71.5t70 121.5t26.5 177.5q0 157 -55.5 267.5 t-152 181t-225.5 102.5t-274 32q-171 0 -318 -58t-255 -159.5t-169 -240t-61 -297.5q0 -158 50.5 -286t149 -219.5t245.5 -141t339 -49.5q60 0 140.5 15.5t147.5 43.5l67 -213q-91 -41 -183.5 -58t-214.5 -17q-216 0 -398 61t-312.5 178.5t-203.5 286.5t-73 388zM911 418 q0 -66 29 -108.5t104 -42.5q33 0 67 17.5t68 47t64 69t55 81.5l54 240q-28 24 -59.5 35t-77.5 11q-68 0 -123 -33t-96 -85t-63 -114t-22 -118z" />
<glyph unicode="A" horiz-adv-x="1333" d="M0 0l555 1430h221l559 -1430h-319l-122 302h-478l-116 -302h-300zM499 540h324l-109 296l-49 224h-10l-49 -226z" />
<glyph unicode="B" horiz-adv-x="1298" d="M132 10v1399q42 6 96 12.5t116 10.5t127 5.5t129 1.5q105 0 207 -15t182.5 -54.5t130.5 -108t50 -176.5q0 -52 -15.5 -104t-48 -96.5t-85 -77.5t-127.5 -47v-12q67 -6 126 -30.5t102.5 -68t69 -105.5t25.5 -145q0 -112 -52 -190.5t-135.5 -129t-190.5 -75t-218 -24.5h-98 q-59 0 -126.5 3t-138 9t-126.5 18zM420 236q12 -4 35 -6.5t52 -3.5l58 -2t52 -1q56 0 107.5 10.5t91 33.5t63 58.5t23.5 88.5q0 65 -28.5 103t-74 57.5t-101 24.5t-112.5 5h-166v-368zM420 828h101q30 0 72 1t70 5q85 26 143.5 71.5t58.5 124.5q0 52 -22 84.5t-59.5 51 t-84.5 24.5t-95 6q-59 0 -107.5 -2t-76.5 -6v-360z" />
<glyph unicode="C" horiz-adv-x="1230" d="M81 710q0 207 65 347.5t166.5 226.5t225 124.5t242.5 38.5q132 0 222.5 -15.5t148.5 -38.5l-58 -252q-51 23 -119 33t-171 10q-91 0 -165.5 -29t-127 -88t-82 -148t-29.5 -209q0 -105 26.5 -192.5t79 -150.5t134 -97t189.5 -34q99 0 166.5 17.5t120.5 46.5l59 -240 q-67 -46 -176.5 -67.5t-225.5 -21.5q-135 0 -260 40.5t-221 130t-153 229.5t-57 339z" />
<glyph unicode="D" horiz-adv-x="1422" d="M132 -2v1422q44 6 102 10t120 5.5t121 2.5t105 1q203 0 347.5 -53t237 -149t135 -227.5t42.5 -287.5q0 -142 -41.5 -276t-135 -238.5t-243.5 -167.5t-369 -63q-34 0 -94 2.5t-124 5.5t-119.5 6t-83.5 7zM432 249q10 -1 31 -2t45 -2t45 -2t31 -1q130 0 215 40.5t134.5 107 t70 152t20.5 176.5q0 75 -18.5 156t-66 148t-128.5 110.5t-209 43.5q-47 0 -95.5 -1t-74.5 -5v-921z" />
<glyph unicode="E" horiz-adv-x="1147" d="M132 0v1420h914v-265h-614v-308h557v-263h-557v-321h624v-263h-924z" />
<glyph unicode="F" horiz-adv-x="1116" d="M132 0v1420h914v-265h-614v-329h566v-265h-566v-561h-300z" />
<glyph unicode="G" horiz-adv-x="1339" d="M81 710q0 201 65 341.5t169.5 228.5t233 127.5t256.5 39.5q132 0 232.5 -19t156.5 -37l-62 -250q-55 18 -124 30.5t-172 12.5q-95 0 -174.5 -25t-138.5 -82t-91.5 -148t-32.5 -221q0 -126 32.5 -215t88.5 -147t129 -84t154 -26q54 0 110 11.5t95 38.5v246l-337 31v183 h580v-636q-46 -37 -102 -62t-118 -42.5t-126.5 -26t-128.5 -8.5q-145 0 -272 42.5t-221.5 133.5t-148 230.5t-53.5 332.5z" />
<glyph unicode="H" horiz-adv-x="1430" d="M132 0v1420h300v-571h568v571h300v-1420h-300v586h-568v-586h-300z" />
<glyph unicode="I" horiz-adv-x="786" d="M81 0v162h163v1095h-163v163h625v-163h-162v-1095h162v-162h-625z" />
<glyph unicode="J" horiz-adv-x="733" d="M-50 25l64 238q56 -25 125 -25h5q46 0 75 16.5t45 48.5t21 74.5t5 90.5v952h300v-1035q0 -75 -20.5 -148t-64 -131.5t-114 -95.5t-172.5 -37q-66 0 -139.5 13.5t-129.5 38.5z" />
<glyph unicode="K" horiz-adv-x="1360" d="M132 0v1420h300v-625l71 31l426 594h342l-450 -594l-117 -78l122 -81l514 -667h-371l-458 600h-79v-600h-300z" />
<glyph unicode="L" horiz-adv-x="1128" d="M132 0v1420h300v-1157h677v-263h-977z" />
<glyph unicode="M" horiz-adv-x="1759" d="M132 0v1420h272l409 -656l77 -156h10l67 160l391 652h271v-1420h-301v712l32 294h-12l-97 -223l-328 -530h-93l-350 532l-95 219h-12l43 -290v-714h-284z" />
<glyph unicode="N" horiz-adv-x="1445" d="M132 0v1430h216l587 -757l115 -207h12l-32 209v745h284v-1430h-217l-582 751l-122 212h-10l33 -215v-738h-284z" />
<glyph unicode="O" horiz-adv-x="1473" d="M81 710q0 174 44.5 311.5t129 232t206 144t275.5 49.5q164 0 286.5 -53.5t205 -151t124 -233t41.5 -299.5q0 -174 -45.5 -312.5t-130.5 -232.5t-207 -144t-274 -50q-165 0 -287 54t-204.5 151t-123 233t-40.5 301zM399 710q0 -105 20.5 -192.5t61 -150.5t104 -97 t151.5 -34q160 0 249 109t89 365q0 101 -17.5 188t-59.5 151t-105.5 99.5t-155.5 35.5q-159 0 -248 -113.5t-89 -360.5z" />
<glyph unicode="P" horiz-adv-x="1256" d="M132 0v1405q91 16 202.5 25t222.5 9q114 0 229.5 -17t208 -68.5t151.5 -144t59 -244.5q0 -133 -51 -227.5t-135 -153.5t-191.5 -86.5t-221.5 -27.5h-34q-25 0 -52 1t-51 3t-37 4v-478h-300zM432 744q8 -2 26 -4t38.5 -3t37.5 -2t27 -1q59 0 118 8t105 34.5t74 72 t28 122.5q0 66 -26 105t-70 61t-99.5 30.5t-112.5 8.5q-42 0 -82 -2t-64 -8v-422z" />
<glyph unicode="Q" horiz-adv-x="1473" d="M81 710q0 174 44.5 311.5t129 232t206 144t275.5 49.5q164 0 286.5 -53.5t205 -151t124 -233t41.5 -299.5q0 -174 -45.5 -312.5t-130.5 -232.5t-207 -144t-274 -50q-165 0 -287 54t-204.5 151t-123 233t-40.5 301zM399 710q0 -105 20.5 -192.5t61 -150.5t104 -97 t151.5 -34q160 0 249 109t89 365q0 101 -17.5 188t-59.5 151t-105.5 99.5t-155.5 35.5q-159 0 -248 -113.5t-89 -360.5zM442 -71q62 12 125 13q91 0 183.5 -20.5t188 -44t196 -43.5t209.5 -20q101 0 201 20v-264q-54 -14 -107 -19t-105 -5q-112 0 -218.5 20t-205 45.5 t-190.5 45.5t-174 20q-54 0 -103 -12v264z" />
<glyph unicode="R" horiz-adv-x="1321" d="M132 0v1405q48 8 106 15.5t117 11.5t114.5 5.5t102.5 1.5q108 0 212 -18t186 -62.5t132.5 -123t50.5 -195.5q0 -174 -86 -286.5t-237 -153.5l107 -62l355 -538h-350l-352 549l-158 25v-574h-300zM432 776h127q128 0 202.5 49t74.5 169q0 89 -63 135.5t-181 46.5 q-47 0 -90.5 -1t-69.5 -7v-392z" />
<glyph unicode="S" horiz-adv-x="1165" d="M56 60l100 254q23 -12 62 -26.5t87.5 -27t104.5 -21t113 -8.5q133 0 203.5 38.5t70.5 119.5q0 62 -53 99t-130.5 67.5t-169.5 60.5t-169.5 81t-130.5 128t-53 201q0 105 37.5 185.5t105.5 132t164.5 77.5t211.5 26q133 0 254 -23t198 -66l-95 -251q-25 14 -62 29 t-86 26.5t-103.5 18.5t-111.5 7q-101 0 -157 -35.5t-56 -98.5q0 -62 53 -99.5t130.5 -69.5t169.5 -63t169.5 -81t130.5 -124.5t53 -192.5t-40.5 -203t-114.5 -140.5t-177.5 -82.5t-226.5 -27q-84 0 -158 9.5t-137 22.5t-110.5 28.5t-76.5 28.5z" />
<glyph unicode="T" horiz-adv-x="1248" d="M25 1155v265h1200v-265h-451v-1155h-300v1155h-449z" />
<glyph unicode="U" horiz-adv-x="1376" d="M124 474v946h300v-890q0 -163 70.5 -226.5t211.5 -63.5q134 0 198.5 67.5t64.5 222.5v890h284v-911q0 -138 -39.5 -239.5t-111.5 -166t-172 -96.5t-220 -32q-286 0 -436 125t-150 374z" />
<glyph unicode="V" horiz-adv-x="1325" d="M-20 1420h349l310 -820l40 -242h10l45 244l296 818h316l-574 -1430h-215z" />
<glyph unicode="W" horiz-adv-x="1901" d="M0 1420h329l205 -781l27 -252h8l33 256l270 777h194l267 -781l31 -252h11l30 256l189 777h308l-426 -1430h-203l-275 772l-37 219h-15l-35 -221l-274 -770h-213z" />
<glyph unicode="X" horiz-adv-x="1387" d="M20 0l475 722l-430 698h363l237 -404l55 -140l52 140l248 404h326l-446 -684l468 -736h-358l-272 432l-61 146l-58 -146l-273 -432h-326z" />
<glyph unicode="Y" horiz-adv-x="1304" d="M-4 1420h356l285 -522l32 -152h10l35 156l273 518h323l-507 -895v-525h-300v523z" />
<glyph unicode="Z" horiz-adv-x="1184" d="M56 0v263l652 809l118 83h-770v265h1072v-265l-656 -814l-114 -78h770v-263h-1072z" />
<glyph unicode="[" horiz-adv-x="708" d="M132 -466v1886h514v-238h-242v-1411h242v-237h-514z" />
<glyph unicode="\" horiz-adv-x="932" d="M-49 1338l219 103l799 -1619l-223 -106z" />
<glyph unicode="]" horiz-adv-x="708" d="M62 -229h244v1411h-244v238h516v-1886h-516v237z" />
<glyph unicode="^" horiz-adv-x="1084" d="M47 834l431 596h153l408 -596h-289l-158 240l-47 143l-54 -145l-170 -238h-274z" />
<glyph unicode="_" horiz-adv-x="979" d="M0 -229h979v-229h-979v229z" />
<glyph unicode="`" horiz-adv-x="708" d="M138 1418v60h298l136 -321h-150z" />
<glyph unicode="a" horiz-adv-x="1173" d="M60 292q0 180 121 272.5t366 92.5q57 0 114 -9t80 -13q5 42 5 73q0 77 -38.5 113t-144.5 36q-97 0 -189 -23t-163 -58l-75 215q91 41 224 67.5t275 26.5q111 0 187 -26.5t120.5 -76t64 -119.5t19.5 -155q0 -103 -8 -204.5t-8 -215.5q0 -77 10 -150t32 -140h-231l-47 158 h-24q-52 -71 -133 -121.5t-209 -50.5q-77 0 -141 22.5t-109.5 64t-71.5 98t-26 123.5zM352 356q0 -73 42 -109t113 -36q95 0 152 44.5t83 92.5v122q-9 4 -31 8t-47 8.5t-50.5 6.5t-46.5 2q-110 0 -162.5 -39.5t-52.5 -99.5z" />
<glyph unicode="b" horiz-adv-x="1254" d="M146 43v1377h284v-447h24q49 55 125 86.5t167 31.5q207 0 315.5 -135t108.5 -395q0 -139 -39.5 -248.5t-113 -185t-178.5 -115t-237 -39.5q-153 0 -272 21.5t-184 48.5zM430 242q40 -20 85.5 -25.5t99.5 -5.5q263 0 263 344q0 146 -55 222t-162 76q-91 0 -147 -42.5 t-84 -125.5v-443z" />
<glyph unicode="c" horiz-adv-x="1013" d="M85 532q0 265 130.5 414t380.5 149q122 0 200 -19.5t139 -49.5l-70 -227q-52 23 -103.5 33.5t-120.5 10.5q-128 0 -196 -74t-68 -237q0 -66 16.5 -122t50.5 -98.5t87 -66.5t124 -24q86 0 135.5 15t93.5 42l64 -213q-69 -46 -165 -71t-199 -25q-138 0 -232.5 40.5 t-154 116t-86 178t-26.5 228.5z" />
<glyph unicode="d" horiz-adv-x="1273" d="M85 513q0 133 33.5 240.5t99.5 183t163 116t225 40.5q71 0 122.5 -11.5t103.5 -27.5v366h283v-1047q0 -85 2 -176.5t19 -198.5h-197l-41 148h-26q-46 -82 -133 -129.5t-205 -47.5q-213 0 -331 133.5t-118 410.5zM377 505q0 -134 55.5 -216t173.5 -82q95 0 148 43.5 t78 124.5v426q-37 29 -78.5 41.5t-109.5 12.5q-135 0 -201 -78.5t-66 -271.5z" />
<glyph unicode="e" horiz-adv-x="1203" d="M85 532q0 278 144 420.5t406 142.5q85 0 168 -21.5t148 -71t104.5 -133.5t39.5 -208q0 -42 -5 -93t-18 -106h-709q10 -137 80 -203t228 -66q95 0 171.5 27.5t116.5 55.5l97 -179q-69 -52 -187.5 -90t-253.5 -38q-273 0 -401.5 150t-128.5 413zM373 631h459q1 16 1 30 q0 90 -42 146q-49 65 -160 65q-126 0 -187 -68t-71 -173z" />
<glyph unicode="f" horiz-adv-x="749" d="M33 828v236h160v68q0 93 28 152.5t76.5 95.5t112.5 49.5t134 13.5q97 0 169 -8.5t134 -29.5l-52 -221q-51 16 -91.5 22.5t-86.5 6.5q-87 0 -114 -33t-27 -116h260v-236h-260v-828h-283v828h-160z" />
<glyph unicode="g" horiz-adv-x="1254" d="M85 530q0 280 143 421.5t424 141.5q149 0 265.5 -19.5t191.5 -43.5v-989q0 -236 -133.5 -347.5t-379.5 -111.5q-158 0 -254 21.5t-149 48.5q27 81 40 128.5t18.5 71.5t7.5 30l2 6q49 -25 118 -49.5t168 -24.5q84 0 139 16t87 47.5t45.5 76t13.5 98.5v80h-25 q-41 -59 -111.5 -83t-176.5 -24q-217 0 -325.5 119t-108.5 386zM377 542q0 -155 57 -225.5t152 -70.5q93 0 153 34t87 85v458q-76 32 -191 32q-124 0 -191 -72.5t-67 -240.5z" />
<glyph unicode="h" horiz-adv-x="1292" d="M146 0v1420h284v-485h24q55 71 137 115.5t208 44.5q87 0 152 -21.5t108.5 -73.5t65.5 -138t22 -214v-648h-284v586q0 138 -41.5 197.5t-152.5 59.5q-81 0 -149 -51t-90 -137v-655h-284z" />
<glyph unicode="i" horiz-adv-x="642" d="M138 1330q0 65 46.5 108.5t131.5 43.5q87 0 138 -44.5t51 -107.5q0 -59 -50.5 -101.5t-138.5 -42.5q-85 0 -131.5 42.5t-46.5 101.5zM180 0v1064h284v-1064h-284z" />
<glyph unicode="j" horiz-adv-x="642" d="M-12 -197q18 -2 34 -2q39 0 67 11q39 14 60 44t28 74.5t7 104.5v1029h284v-1113q0 -193 -79 -296t-255 -103q-70 0 -146 14v237zM140 1330q0 65 46.5 108.5t131.5 43.5q87 0 138 -44.5t51 -107.5q0 -59 -50.5 -101.5t-138.5 -42.5q-85 0 -131.5 42.5t-46.5 101.5z" />
<glyph unicode="k" horiz-adv-x="1143" d="M146 0v1420h284v-816l89 39l266 421h312l-271 -387h2l-130 -93l136 -89h-2l311 -495h-328l-288 442h-97v-442h-284z" />
<glyph unicode="l" horiz-adv-x="683" d="M152 211v1209h284v-1047q0 -154 100 -154q28 0 53.5 5t58.5 18l35 -222q-40 -18 -114 -35.5t-153 -17.5q-128 0 -196 57t-68 187z" />
<glyph unicode="m" horiz-adv-x="1905" d="M146 0v1064h219l32 -147h27q26 34 60.5 66.5t76 56.5t93.5 39.5t116 15.5q108 0 180 -47.5t114 -159.5q59 97 143.5 152t195.5 55q97 0 165 -22.5t111 -77.5t62 -148t19 -232v-615h-284v569q0 68 -6 118.5t-24 86t-52 52.5t-88 17q-85 0 -137 -43.5t-74 -120.5v-679h-284 v555q0 155 -32.5 221.5t-134.5 66.5q-85 0 -135.5 -41.5t-78.5 -108.5v-693h-284z" />
<glyph unicode="n" horiz-adv-x="1292" d="M146 0v1064h223l30 -151h31q52 75 139.5 128.5t227.5 53.5q85 0 151 -21.5t109.5 -73.5t66.5 -139t23 -218v-643h-284v584q0 138 -42.5 198.5t-149.5 60.5q-91 0 -155 -49.5t-88 -126.5q0 -166 1 -333.5t1 -333.5h-284z" />
<glyph unicode="o" horiz-adv-x="1248" d="M85 532q0 263 140 413t400 150q135 0 236.5 -42.5t168.5 -119t100.5 -179t33.5 -222.5q0 -130 -36.5 -234.5t-105.5 -177.5t-169.5 -112t-227.5 -39q-138 0 -239.5 42.5t-168.5 119t-99.5 179t-32.5 222.5zM377 532q0 -68 14.5 -127t43.5 -102.5t75.5 -69.5t114.5 -26 q247 0 247 325q0 71 -13.5 130.5t-42.5 103t-77 67.5t-114 24q-116 0 -182 -76.5t-66 -248.5z" />
<glyph unicode="p" horiz-adv-x="1262" d="M146 -404v1468h202l35 -131h25q62 81 145.5 121.5t194.5 40.5q215 0 322.5 -128.5t107.5 -409.5q0 -133 -34.5 -241.5t-101.5 -187t-165.5 -120t-226.5 -41.5q-69 0 -119.5 13.5t-100.5 35.5v-420h-284zM430 265q34 -28 76.5 -44t108.5 -16q137 0 204 86t67 274 q0 136 -51.5 214t-173.5 78q-97 0 -150 -43.5t-81 -134.5v-414z" />
<glyph unicode="q" horiz-adv-x="1254" d="M85 509q0 286 154 435t444 149q60 0 122.5 -6t118 -15.5t103 -20.5t82.5 -23v-1432h-283v505h-25q-41 -62 -106.5 -97t-173.5 -35q-213 0 -324.5 135.5t-111.5 404.5zM377 521q0 -153 58.5 -233.5t168.5 -80.5q95 0 146 40.5t76 119.5v459q-37 16 -84 22.5t-105 6.5 q-134 0 -197 -91t-63 -243z" />
<glyph unicode="r" horiz-adv-x="822" d="M146 0v1064h223l30 -147h27q40 83 108 127.5t155 44.5q54 0 126 -23l-41 -261q-60 20 -122 21q-89 0 -146.5 -42.5t-75.5 -108.5v-675h-284z" />
<glyph unicode="s" horiz-adv-x="979" d="M73 52l71 224q28 -14 66 -28t81.5 -26.5t89 -20.5t91.5 -8q72 0 111.5 22.5t39.5 82.5q0 48 -53 71.5t-130 46.5q-57 16 -119 38t-113.5 59.5t-85 98.5t-33.5 154q0 161 99.5 245t285.5 84q122 0 228.5 -21.5t171.5 -49.5l-59 -215q-53 20 -135 41.5t-167 21.5 q-71 0 -105.5 -21t-34.5 -75q0 -46 53.5 -69.5t130.5 -45.5q57 -16 119 -37.5t113 -57.5t84 -94t33 -145q0 -171 -110.5 -264.5t-331.5 -93.5q-119 0 -222.5 21.5t-168.5 61.5z" />
<glyph unicode="t" horiz-adv-x="818" d="M16 828v236h162v147l284 74v-221h286v-236h-286v-370q0 -127 25.5 -183t100.5 -56q47 0 79.5 7.5t68.5 22.5l59 -212q-65 -29 -149.5 -49.5t-163.5 -20.5q-158 0 -231 78.5t-73 250.5v532h-162z" />
<glyph unicode="u" horiz-adv-x="1300" d="M146 414v650h284v-590q0 -131 36.5 -192t139.5 -61q89 0 150 46.5t89 117.5v679h285v-739q0 -85 8.5 -170.5t25.5 -154.5h-209l-55 166h-22q-52 -85 -149.5 -141t-223.5 -56q-87 0 -154 22.5t-112.5 74.5t-69 137t-23.5 211z" />
<glyph unicode="v" horiz-adv-x="1106" d="M-25 1064h331l215 -551l42 -165h33l31 169l199 547h306l-488 -1074h-162z" />
<glyph unicode="w" horiz-adv-x="1672" d="M-12 1064h308l170 -524l29 -197h30l40 199l193 522h209q55 -133 108 -269t107 -270l41 -179h30l30 181q37 135 75.5 268.5t75.5 268.5h259l-363 -1074h-204q-55 140 -118.5 293t-117.5 293l-29 138h-35q-6 -35 -14.5 -70.5t-14.5 -69.5l-221 -584h-215z" />
<glyph unicode="x" horiz-adv-x="1189" d="M12 0l377 545l-348 519h344l145 -207l-3 2l83 -188l81 188l-2 -2l154 207h312l-350 -511l373 -553h-336l-173 240l2 -2l-85 186l-89 -186l2 2l-174 -240h-313z" />
<glyph unicode="y" horiz-adv-x="1095" d="M-25 1064h344l217 -590l44 -170h20l39 170l180 590h290l-353 -963q-44 -120 -83.5 -215t-86 -162t-104.5 -102.5t-137 -35.5q-53 0 -100.5 9.5t-82.5 27.5l59 219q30 -10 63 -10q29 0 55 6t48.5 23t41.5 49t33 84z" />
<glyph unicode="z" horiz-adv-x="1066" d="M85 0v242l449 482h-2l131 104h-578v236h896v-241l-443 -488h2l-134 -97h575v-238h-896z" />
<glyph unicode="{" horiz-adv-x="816" d="M97 369v215q85 0 130.5 41.5t45.5 130.5v412q0 110 56 182t178 72h263v-238h-111q-58 0 -86 -29t-28 -95v-379q0 -89 -47.5 -134.5t-106.5 -55.5v-21q58 -8 106 -61t48 -138v-376q0 -62 27.5 -93t88.5 -31h109v-237h-263q-114 0 -174 65.5t-60 185.5v403q0 103 -45.5 142 t-130.5 39z" />
<glyph unicode="|" horiz-adv-x="497" d="M132 -263v1683h235v-1683h-235z" />
<glyph unicode="}" horiz-adv-x="816" d="M47 -229h109q59 0 87 29.5t28 94.5v378q0 89 47 135t108 56v20q-59 8 -107 61t-48 138v377q0 63 -27 93.5t-90 30.5h-107v238h261q116 0 176 -67.5t60 -186.5v-402q0 -103 45.5 -141.5t130.5 -38.5v-215q-85 0 -130.5 -41.5t-45.5 -130.5v-410q0 -110 -60 -182.5 t-182 -72.5h-255v237z" />
<glyph unicode="~" horiz-adv-x="1157" d="M60 770q103 77 186 108t153 31q62 0 117.5 -17.5t106 -37.5t99 -37.5t101.5 -17.5q40 0 81.5 13.5t89.5 46.5l103 -218q-79 -57 -144 -78t-121 -21q-61 0 -114 18t-104 41.5t-101.5 41.5t-106.5 18q-53 0 -115 -22t-135 -82z" />
<glyph unicode="&#xa1;" horiz-adv-x="634" d="M95 876q0 75 49 118t127 43q81 0 130 -43t49 -118q0 -71 -49 -115.5t-130 -44.5q-79 0 -127.5 44.5t-48.5 115.5zM120 257l56 327h180l60 -327v-663h-296v663z" />
<glyph unicode="&#xa2;" d="M158 507q0 227 104.5 362t306.5 165v183h265v-183q62 -8 111 -22t89 -33l-69 -233q-32 12 -68 22t-74 15v-554q50 8 89 22t69 31l69 -217q-40 -26 -96 -45.5t-120 -31.5v-191h-265v180q-114 14 -191.5 58t-126 112t-71 159t-22.5 201zM442 507q0 -91 40.5 -165.5 t136.5 -101.5v538q-89 -20 -133 -84.5t-44 -186.5z" />
<glyph unicode="&#xa3;" d="M89 0v251h4q140 4 209 71t69 165q0 41 -10 85h-272v231h151q-29 46 -49.5 103t-20.5 142q0 99 37 174.5t101.5 126t154.5 74.5t198 24q134 0 244.5 -25t191.5 -60l-93 -257q-41 23 -120 49t-189 26q-105 0 -165 -42.5t-60 -129.5q0 -66 28.5 -112.5t62.5 -92.5h304v-231 h-204q0 -10 1 -22t1 -25q0 -63 -22 -128.5t-72 -110.5l-82 -57v-10l136 32h507v-251h-1041z" />
<glyph unicode="&#xa4;" d="M29 304l155 158l73 37q-22 41 -36 90.5t-14 110.5q0 58 15.5 108.5t38.5 97.5l-77 34l-155 159l162 168l157 -156l37 -74q41 30 97 44t116 14q58 0 116 -15.5t99 -42.5l38 74l159 156l162 -170l-156 -158l-76 -30q29 -43 41.5 -97t12.5 -112q0 -60 -13.5 -114t-40.5 -91 l76 -33l156 -158l-162 -166l-159 156l-34 73q-39 -28 -99.5 -43.5t-119.5 -15.5q-60 0 -116 15.5t-97 43.5l-37 -73l-157 -156zM438 702q0 -73 46 -121.5t116 -48.5q73 0 117.5 48.5t44.5 121.5q0 71 -44.5 120.5t-117.5 49.5q-71 0 -116.5 -49.5t-45.5 -120.5z" />
<glyph unicode="&#xa5;" d="M-56 1420h356l284 -522l33 -152h10l34 156l274 518h322l-415 -735h197v-190h-289v-118h289v-191h-289v-186h-300v186h-288v191h288v118h-288v190h196z" />
<glyph unicode="&#xa6;" horiz-adv-x="497" d="M132 -263v695h235v-695h-235zM132 724v696h235v-696h-235z" />
<glyph unicode="&#xa7;" horiz-adv-x="1167" d="M108 716q0 62 33 122t88 106l92 27q-59 33 -94.5 83.5t-35.5 131.5q0 116 95 188.5t288 72.5q132 0 243.5 -20t171.5 -48l-70 -230q-49 25 -133 43.5t-165 18.5t-114 -20.5t-33 -52.5q0 -37 43.5 -55.5t108.5 -33.5t140.5 -33t140 -54.5t108 -97.5t43.5 -160 q0 -62 -31 -120.5t-88 -105.5l-99 -28q58 -32 97.5 -83t39.5 -133q0 -128 -105.5 -195.5t-283.5 -67.5q-152 0 -253 31t-165 65l78 215q50 -25 122 -49t172 -24q81 0 116 17.5t35 57.5q0 39 -43.5 58t-108.5 34t-140.5 33.5t-140.5 54t-108.5 94.5t-43.5 158zM391 720 q0 -35 18.5 -59t53 -42.5t84 -34t114.5 -31.5q49 25 81 64.5t32 82.5q0 37 -18 61t-53.5 42t-87.5 33t-116 34q-43 -25 -75.5 -64.5t-32.5 -85.5z" />
<glyph unicode="&#xa8;" horiz-adv-x="1084" d="M136 1333q0 71 43.5 113t112.5 42t111 -42.5t42 -112.5q0 -61 -42 -104t-111 -43t-112.5 43t-43.5 104zM648 1333q0 71 42 113t111 42q71 0 112.5 -42.5t41.5 -112.5q0 -61 -41.5 -104t-112.5 -43q-69 0 -111 43t-42 104z" />
<glyph unicode="&#xa9;" horiz-adv-x="1803" d="M118 580q0 178 61 323t166 247.5t249 157t308 54.5t307 -54.5t248.5 -157t166.5 -247.5t61 -323q0 -180 -61 -325t-166.5 -246.5t-248.5 -157.5t-307 -56q-180 0 -326 56t-247.5 157.5t-156 246.5t-54.5 325zM335 580q0 -134 42.5 -241.5t118.5 -181.5t179 -114.5 t227 -40.5t227.5 40.5t179.5 114.5t118.5 181.5t42.5 241.5t-42.5 240.5t-118.5 180t-179.5 114t-227.5 40.5t-227 -40.5t-179 -114t-118.5 -180t-42.5 -240.5zM538 580q0 197 98 304t260 107q81 0 143 -19t120 -49l-72 -195q-37 17 -68.5 23.5t-59.5 6.5q-58 0 -93.5 -38.5 t-35.5 -139.5q0 -180 145 -181q39 0 69 7.5t65 25.5l65 -194q-46 -33 -120.5 -51.5t-157.5 -18.5q-174 0 -266 110.5t-92 301.5z" />
<glyph unicode="&#xaa;" horiz-adv-x="970" d="M116 965q0 63 32 105.5t89 69t133 38.5t164 12q15 0 28.5 -1t29.5 -1q4 47 -15.5 69t-96.5 22q-91 0 -161.5 -17.5t-113.5 -32.5l-47 133q59 31 162.5 52.5t234.5 21.5q84 0 139.5 -14.5t89 -43t47.5 -71t14 -100.5q0 -69 -2.5 -136t-2.5 -131q0 -46 2.5 -88.5 t12.5 -81.5h-228l-27 95h-8q-29 -34 -81.5 -68.5t-147.5 -34.5q-112 0 -179.5 57t-67.5 146zM371 991q0 -31 23.5 -47.5t55.5 -16.5q37 0 60.5 6.5t39 17t25 22.5t17.5 25v64q-18 2 -36 3t-35 1q-68 0 -109 -17t-41 -58z" />
<glyph unicode="&#xab;" horiz-adv-x="1074" d="M62 525l354 466l168 -142l-185 -239l-105 -83l105 -73l199 -235l-170 -142zM491 530l341 435l149 -127l-172 -232l-101 -79l101 -71l185 -229l-151 -128z" />
<glyph unicode="&#xac;" horiz-adv-x="1157" d="M99 600v243h975v-472h-253v229h-722z" />
<glyph unicode="&#xad;" horiz-adv-x="792" d="M120 458v252h553v-252h-553z" />
<glyph unicode="&#xae;" horiz-adv-x="1489" d="M130 882q0 146 49.5 260.5t133.5 194t196 119.5t237 40q128 0 239.5 -40t195.5 -119.5t131.5 -194t47.5 -260.5q0 -145 -49.5 -260t-132.5 -194.5t-195.5 -120t-236.5 -40.5q-127 0 -240 40.5t-197 120t-131.5 194.5t-47.5 260zM339 882q0 -103 33.5 -181t89 -130 t129.5 -77.5t155 -25.5q86 0 159.5 25.5t128.5 76.5t86 128.5t31 183.5q0 103 -32 181t-88 129.5t-129.5 77.5t-155.5 26q-91 0 -166 -29t-129 -82t-83 -130.5t-29 -172.5zM523 604v560q34 10 97 16t118 6q91 0 157 -38.5t66 -131.5q0 -68 -44.5 -105t-109.5 -41l58 -30 l141 -236h-132l-136 226l-103 31v-257h-112zM635 927h75q62 0 97 19t35 66q0 36 -34 56.5t-92 20.5q-23 0 -45.5 -1t-35.5 -7v-154z" />
<glyph unicode="&#xaf;" horiz-adv-x="954" d="M122 1184v193h712v-193h-712z" />
<glyph unicode="&#xb0;" horiz-adv-x="962" d="M118 1105q0 75 29 138t79 108.5t116 70.5t136 25q75 0 141 -23t117 -67.5t80 -107.5t29 -144q0 -79 -29 -141t-80 -105.5t-117 -67t-141 -23.5q-71 0 -136.5 23.5t-115.5 67t-79 105.5t-29 141zM337 1107q0 -63 42.5 -96.5t100.5 -33.5q59 0 103 33.5t44 96.5 q0 62 -43.5 96.5t-103.5 34.5q-58 0 -100.5 -35.5t-42.5 -95.5z" />
<glyph unicode="&#xb1;" horiz-adv-x="1157" d="M95 269v244h967v-244h-967zM95 828v242h357v354h254v-354h356v-242h-356v-224h-254v224h-357z" />
<glyph unicode="&#xb2;" horiz-adv-x="895" d="M101 1551q77 43 165 64t168 21q156 0 242 -68t86 -196q0 -58 -17 -106.5t-45.5 -89.5t-68 -77.5t-84.5 -73.5l-105 -48v-10l130 24h225v-221h-687v158q56 35 125 82.5t130 99t101.5 106.5t40.5 105q0 53 -31 72.5t-93 19.5q-58 0 -111 -19t-94 -42z" />
<glyph unicode="&#xb3;" horiz-adv-x="895" d="M120 807l50 193q92 -39 197 -39q99 0 138.5 25.5t39.5 69.5q0 43 -41.5 68t-155.5 25h-87v81l157 151l95 48l-128 -11h-253v203h624v-135l-191 -174l-74 -37v-10l64 6q116 -4 181 -64t65 -169q0 -73 -31.5 -127t-86 -88t-127 -50.5t-152.5 -16.5q-85 0 -158.5 14.5 t-125.5 36.5z" />
<glyph unicode="&#xb4;" horiz-adv-x="683" d="M160 1157l122 321h287v-58l-255 -263h-154z" />
<glyph unicode="&#xb6;" horiz-adv-x="1161" d="M56 1008q0 79 29 153t82.5 131.5t127.5 92.5t165 35h165v-1683h-236v855q-73 0 -133.5 35.5t-105.5 93t-69.5 133t-24.5 154.5zM797 -263v1683h235v-1683h-235z" />
<glyph unicode="&#xb7;" horiz-adv-x="549" d="M97 645q0 75 49 117.5t127 42.5q81 0 130 -42.5t49 -117.5q0 -72 -49 -116.5t-130 -44.5q-79 0 -127.5 44.5t-48.5 116.5z" />
<glyph unicode="&#xb8;" horiz-adv-x="743" d="M138 -442l20 96q63 -4 101.5 0.5t60 13.5t28 22.5t6.5 29.5q0 34 -46.5 52.5t-149.5 22.5l126 193h176l-56 -93q97 -6 152.5 -42.5t55.5 -113.5q0 -49 -25.5 -84.5t-70 -60t-103.5 -36.5t-127 -12q-37 0 -73.5 2t-74.5 10z" />
<glyph unicode="&#xb9;" horiz-adv-x="895" d="M85 1409l347 227h189v-647h194v-219h-663v219h217v305l20 97l-66 -68l-126 -83z" />
<glyph unicode="&#xba;" horiz-adv-x="964" d="M97 1099q0 91 28.5 156t80 106.5t121.5 61.5t155 20q83 0 154.5 -18t123 -59.5t80 -107.5t28.5 -159q0 -95 -28.5 -160t-80 -106.5t-123 -60t-154.5 -18.5q-85 0 -155 18.5t-121.5 60t-80 106.5t-28.5 160zM354 1099q0 -79 29 -123.5t99 -44.5q69 0 97.5 38.5t28.5 129.5 t-28.5 129.5t-97.5 38.5t-98.5 -38.5t-29.5 -129.5z" />
<glyph unicode="&#xbb;" horiz-adv-x="1074" d="M81 842l148 127l355 -429l-340 -437l-153 131l172 228l102 80l-102 70zM476 849l168 142l368 -447l-353 -467l-168 144l184 237l105 84l-105 73z" />
<glyph unicode="&#xbc;" horiz-adv-x="1923" d="M61 1207l347 227h189v-867h-252v524l20 95l-66 -64l-128 -83zM387 95l947 1354l184 -114l-948 -1364zM958 153v145l482 570h195v-525h168v-190h-168v-153h-219v153h-458zM1186 325l118 18h112v164l10 110h-10l-46 -98l-104 -128z" />
<glyph unicode="&#xbd;" horiz-adv-x="1976" d="M61 1207l347 227h189v-867h-252v524l20 95l-66 -64l-128 -83zM387 95l947 1354l184 -114l-948 -1364zM1180 781q77 43 165 64t168 21q156 0 242 -68t86 -196q0 -58 -17 -106.5t-45.5 -89.5t-68 -77.5t-84.5 -73.5l-105 -48v-10l130 24h225v-221h-687v158q56 35 125 82.5 t130 99t101.5 106.5t40.5 105q0 53 -31 72.5t-93 19.5q-58 0 -111 -19t-94 -42z" />
<glyph unicode="&#xbe;" horiz-adv-x="1980" d="M85 604l50 193q92 -39 197 -39q99 0 138.5 25.5t39.5 69.5q0 43 -41.5 68t-155.5 25h-87v81l157 151l95 48l-128 -11h-253v203h624v-135l-191 -174l-74 -37v-10l64 6q116 -4 181 -64t65 -169q0 -73 -31.5 -127t-86 -88t-127 -50.5t-152.5 -16.5q-85 0 -158.5 14.5 t-125.5 36.5zM444 95l947 1354l184 -114l-948 -1364zM1014 153v145l482 570h195v-525h168v-190h-168v-153h-219v153h-458zM1242 325l118 18h112v164l10 110h-10l-46 -98l-104 -128z" />
<glyph unicode="&#xbf;" horiz-adv-x="994" d="M50 -87q0 110 30 177.5t74.5 114t97 80.5t97 72t75 92t30.5 139h244q12 -110 -10.5 -184.5t-62 -126.5t-88 -89.5t-92 -71t-73 -70t-29.5 -89.5q0 -71 43.5 -110.5t151.5 -39.5q34 0 74 8.5t81 22.5t78.5 32t66.5 39l108 -209q-83 -54 -191.5 -92t-263.5 -38 q-207 0 -324 92t-117 251zM391 878q0 75 49 118t127 43q81 0 130 -43t49 -118q0 -71 -49 -115.5t-130 -44.5q-79 0 -127.5 44.5t-48.5 115.5z" />
<glyph unicode="&#xc0;" horiz-adv-x="1333" d="M0 0l555 1430h221l559 -1430h-319l-122 302h-478l-116 -302h-300zM260 1701v63h350l230 -239h-232zM499 540h324l-109 296l-49 224h-10l-49 -226z" />
<glyph unicode="&#xc1;" horiz-adv-x="1333" d="M0 0l555 1430h221l559 -1430h-319l-122 302h-478l-116 -302h-300zM499 540h324l-109 296l-49 224h-10l-49 -226zM501 1525l230 239h350v-63l-354 -176h-226z" />
<glyph unicode="&#xc2;" horiz-adv-x="1333" d="M0 0l555 1430h221l559 -1430h-319l-122 302h-478l-116 -302h-300zM272 1494v85l294 185h213l280 -187v-83h-220l-126 81l-44 69l-49 -67l-133 -83h-215zM499 540h324l-109 296l-49 224h-10l-49 -226z" />
<glyph unicode="&#xc3;" horiz-adv-x="1333" d="M0 0l555 1430h221l559 -1430h-319l-122 302h-478l-116 -302h-300zM254 1631q67 71 130.5 97t126.5 26q49 0 97.5 -11t94.5 -25.5t89.5 -25.5t83.5 -11q35 0 67 10t63 39l51 -147q-59 -52 -116 -72.5t-111 -20.5q-49 0 -97 11.5t-93.5 25t-89 25t-85.5 11.5 q-43 0 -83.5 -15t-81.5 -56zM499 540h324l-109 296l-49 224h-10l-49 -226z" />
<glyph unicode="&#xc4;" horiz-adv-x="1333" d="M0 0l555 1430h221l559 -1430h-319l-122 302h-478l-116 -302h-300zM266 1618q0 54 39.5 87.5t128.5 33.5q85 0 124.5 -33t39.5 -88q0 -53 -39.5 -84t-124.5 -31q-89 0 -128.5 31t-39.5 84zM499 540h324l-109 296l-49 224h-10l-49 -226zM738 1618q0 54 39.5 87.5 t124.5 33.5q89 0 129 -33t40 -88q0 -53 -40 -84t-129 -31q-85 0 -124.5 31t-39.5 84z" />
<glyph unicode="&#xc5;" horiz-adv-x="1333" d="M0 0l544 1397q-88 18 -122.5 63t-34.5 105q0 37 12.5 70.5t43.5 59t86 39t138 13.5q157 0 219 -48.5t62 -133.5q0 -58 -34 -102.5t-125 -65.5l546 -1397h-319l-122 302h-478l-116 -302h-300zM499 540h324l-109 296l-49 224h-10l-49 -226zM569 1565q0 -29 23 -44.5 t75 -15.5q57 0 78 14.5t21 45.5q0 33 -23 49.5t-76 16.5q-98 0 -98 -66z" />
<glyph unicode="&#xc6;" horiz-adv-x="1894" d="M-65 0l935 1420h924v-265h-614v-308h559v-263h-559v-321h625v-263h-925v335h-410l-215 -335h-320zM610 578h270v496h-15l-78 -215z" />
<glyph unicode="&#xc7;" horiz-adv-x="1230" d="M81 710q0 207 65 347.5t166.5 226.5t225 124.5t242.5 38.5q132 0 222.5 -15.5t148.5 -38.5l-58 -252q-51 23 -119 33t-171 10q-91 0 -165.5 -29t-127 -88t-82 -148t-29.5 -209q0 -105 26.5 -192.5t79 -150.5t134 -97t189.5 -34q99 0 166.5 17.5t120.5 46.5l59 -240 q-54 -38 -137.5 -58t-177.5 -27l-48 -80q97 -6 153 -42.5t56 -113.5q0 -49 -25.5 -84.5t-70 -60t-103.5 -36.5t-128 -12q-37 0 -73 2t-75 10l20 96q63 -4 102 0.5t60 13.5t28 22.5t7 29.5q0 34 -46.5 52.5t-150.5 22.5l118 182q-122 12 -231 59t-191.5 136t-131 222 t-48.5 316z" />
<glyph unicode="&#xc8;" horiz-adv-x="1147" d="M132 0v1420h914v-265h-614v-308h557v-263h-557v-321h624v-263h-924zM197 1701v63h350l230 -239h-232z" />
<glyph unicode="&#xc9;" horiz-adv-x="1147" d="M132 0v1420h914v-265h-614v-308h557v-263h-557v-321h624v-263h-924zM416 1525l230 239h350v-63l-354 -176h-226z" />
<glyph unicode="&#xca;" horiz-adv-x="1147" d="M132 0v1420h914v-265h-614v-308h557v-263h-557v-321h624v-263h-924zM189 1494v85l294 185h213l280 -187v-83h-220l-126 81l-44 69l-49 -67l-133 -83h-215z" />
<glyph unicode="&#xcb;" horiz-adv-x="1147" d="M132 0v1420h914v-265h-614v-308h557v-263h-557v-321h624v-263h-924zM184 1618q0 54 39.5 87.5t128.5 33.5q85 0 124.5 -33t39.5 -88q0 -53 -39.5 -84t-124.5 -31q-89 0 -128.5 31t-39.5 84zM656 1618q0 54 39.5 87.5t124.5 33.5q89 0 129 -33t40 -88q0 -53 -40 -84 t-129 -31q-85 0 -124.5 31t-39.5 84z" />
<glyph unicode="&#xcc;" horiz-adv-x="786" d="M27 1701v63h350l230 -239h-232zM81 0v162h163v1095h-163v163h625v-163h-162v-1095h162v-162h-625z" />
<glyph unicode="&#xcd;" horiz-adv-x="786" d="M81 0v162h163v1095h-163v163h625v-163h-162v-1095h162v-162h-625zM193 1525l230 239h350v-63l-354 -176h-226z" />
<glyph unicode="&#xce;" horiz-adv-x="786" d="M2 1494v85l294 185h213l280 -187v-83h-220l-126 81l-44 69l-49 -67l-133 -83h-215zM81 0v162h163v1095h-163v163h625v-163h-162v-1095h162v-162h-625z" />
<glyph unicode="&#xcf;" horiz-adv-x="786" d="M-6 1618q0 54 39.5 87.5t128.5 33.5q85 0 124.5 -33t39.5 -88q0 -53 -39.5 -84t-124.5 -31q-89 0 -128.5 31t-39.5 84zM81 0v162h163v1095h-163v163h625v-163h-162v-1095h162v-162h-625zM466 1618q0 54 39.5 87.5t124.5 33.5q89 0 129 -33t40 -88q0 -53 -40 -84t-129 -31 q-85 0 -124.5 31t-39.5 84z" />
<glyph unicode="&#xd0;" horiz-adv-x="1447" d="M-14 598v238h170v584q45 6 102.5 10t119.5 5.5t120.5 2.5t105.5 1q203 0 348 -53t237 -149t134.5 -227.5t42.5 -287.5q0 -142 -41.5 -276t-134.5 -238.5t-243 -167.5t-369 -63q-34 0 -94 2.5t-124 5.5t-120 6t-84 7v600h-170zM456 249q10 -1 31.5 -2t44.5 -2t44.5 -2 t31.5 -1q130 0 215.5 40.5t135 107t69.5 152t20 176.5q0 75 -18 156t-65.5 148t-129 110.5t-208.5 43.5q-47 0 -96 -1t-75 -5v-334h274v-238h-274v-349z" />
<glyph unicode="&#xd1;" horiz-adv-x="1445" d="M132 0v1430h216l587 -757l115 -207h12l-32 209v745h284v-1430h-217l-582 751l-122 212h-10l33 -215v-738h-284zM304 1631q67 71 130.5 97t126.5 26q49 0 97.5 -11t94.5 -25.5t89.5 -25.5t83.5 -11q35 0 67 10t63 39l51 -147q-59 -52 -116 -72.5t-111 -20.5 q-49 0 -97 11.5t-93.5 25t-89 25t-85.5 11.5q-43 0 -83.5 -15t-81.5 -56z" />
<glyph unicode="&#xd2;" horiz-adv-x="1473" d="M81 710q0 174 44.5 311.5t129 232t206 144t275.5 49.5q164 0 286.5 -53.5t205 -151t124 -233t41.5 -299.5q0 -174 -45.5 -312.5t-130.5 -232.5t-207 -144t-274 -50q-165 0 -287 54t-204.5 151t-123 233t-40.5 301zM325 1701v63h350l230 -239h-232zM399 710 q0 -105 20.5 -192.5t61 -150.5t104 -97t151.5 -34q160 0 249 109t89 365q0 101 -17.5 188t-59.5 151t-105.5 99.5t-155.5 35.5q-159 0 -248 -113.5t-89 -360.5z" />
<glyph unicode="&#xd3;" horiz-adv-x="1473" d="M81 710q0 174 44.5 311.5t129 232t206 144t275.5 49.5q164 0 286.5 -53.5t205 -151t124 -233t41.5 -299.5q0 -174 -45.5 -312.5t-130.5 -232.5t-207 -144t-274 -50q-165 0 -287 54t-204.5 151t-123 233t-40.5 301zM399 710q0 -105 20.5 -192.5t61 -150.5t104 -97 t151.5 -34q160 0 249 109t89 365q0 101 -17.5 188t-59.5 151t-105.5 99.5t-155.5 35.5q-159 0 -248 -113.5t-89 -360.5zM572 1525l230 239h350v-63l-354 -176h-226z" />
<glyph unicode="&#xd4;" horiz-adv-x="1473" d="M81 710q0 174 44.5 311.5t129 232t206 144t275.5 49.5q164 0 286.5 -53.5t205 -151t124 -233t41.5 -299.5q0 -174 -45.5 -312.5t-130.5 -232.5t-207 -144t-274 -50q-165 0 -287 54t-204.5 151t-123 233t-40.5 301zM343 1494v85l294 185h213l280 -187v-83h-220l-126 81 l-44 69l-49 -67l-133 -83h-215zM399 710q0 -105 20.5 -192.5t61 -150.5t104 -97t151.5 -34q160 0 249 109t89 365q0 101 -17.5 188t-59.5 151t-105.5 99.5t-155.5 35.5q-159 0 -248 -113.5t-89 -360.5z" />
<glyph unicode="&#xd5;" horiz-adv-x="1473" d="M81 710q0 174 44.5 311.5t129 232t206 144t275.5 49.5q164 0 286.5 -53.5t205 -151t124 -233t41.5 -299.5q0 -174 -45.5 -312.5t-130.5 -232.5t-207 -144t-274 -50q-165 0 -287 54t-204.5 151t-123 233t-40.5 301zM335 1631q67 71 130.5 97t126.5 26q49 0 97.5 -11 t94.5 -25.5t89.5 -25.5t83.5 -11q35 0 67 10t63 39l51 -147q-59 -52 -116 -72.5t-111 -20.5q-49 0 -97 11.5t-93.5 25t-89 25t-85.5 11.5q-43 0 -83.5 -15t-81.5 -56zM399 710q0 -105 20.5 -192.5t61 -150.5t104 -97t151.5 -34q160 0 249 109t89 365q0 101 -17.5 188 t-59.5 151t-105.5 99.5t-155.5 35.5q-159 0 -248 -113.5t-89 -360.5z" />
<glyph unicode="&#xd6;" horiz-adv-x="1473" d="M81 710q0 174 44.5 311.5t129 232t206 144t275.5 49.5q164 0 286.5 -53.5t205 -151t124 -233t41.5 -299.5q0 -174 -45.5 -312.5t-130.5 -232.5t-207 -144t-274 -50q-165 0 -287 54t-204.5 151t-123 233t-40.5 301zM335 1618q0 54 39.5 87.5t128.5 33.5q85 0 124.5 -33 t39.5 -88q0 -53 -39.5 -84t-124.5 -31q-89 0 -128.5 31t-39.5 84zM399 710q0 -105 20.5 -192.5t61 -150.5t104 -97t151.5 -34q160 0 249 109t89 365q0 101 -17.5 188t-59.5 151t-105.5 99.5t-155.5 35.5q-159 0 -248 -113.5t-89 -360.5zM807 1618q0 54 39.5 87.5t124.5 33.5 q89 0 129 -33t40 -88q0 -53 -40 -84t-129 -31q-85 0 -124.5 31t-39.5 84z" />
<glyph unicode="&#xd7;" horiz-adv-x="1157" d="M126 424l278 263l-276 255l166 182l286 -273l283 273l169 -182l-276 -255l276 -261l-169 -178l-283 271l-288 -273z" />
<glyph unicode="&#xd8;" horiz-adv-x="1473" d="M81 710q0 174 44.5 311.5t129 232t206 144t275.5 49.5q188 0 328 -75l53 77l193 -123l-70 -99q78 -97 115.5 -228t37.5 -289q0 -174 -45.5 -312.5t-130.5 -232.5t-207 -144t-274 -50q-93 0 -171 17.5t-145 50.5l-45 -68l-189 122l58 83q-84 97 -123.5 233t-39.5 301z M399 710q0 -149 37 -254l468 683q-71 45 -168 45q-159 0 -248 -113.5t-89 -360.5zM582 271q62 -36 154 -35q160 0 249 109t89 365q0 130 -30 230z" />
<glyph unicode="&#xd9;" horiz-adv-x="1376" d="M124 474v946h300v-890q0 -163 70.5 -226.5t211.5 -63.5q134 0 198.5 67.5t64.5 222.5v890h284v-911q0 -138 -39.5 -239.5t-111.5 -166t-172 -96.5t-220 -32q-286 0 -436 125t-150 374zM288 1701v63h350l230 -239h-232z" />
<glyph unicode="&#xda;" horiz-adv-x="1376" d="M124 474v946h300v-890q0 -163 70.5 -226.5t211.5 -63.5q134 0 198.5 67.5t64.5 222.5v890h284v-911q0 -138 -39.5 -239.5t-111.5 -166t-172 -96.5t-220 -32q-286 0 -436 125t-150 374zM572 1525l230 239h350v-63l-354 -176h-226z" />
<glyph unicode="&#xdb;" horiz-adv-x="1376" d="M124 474v946h300v-890q0 -163 70.5 -226.5t211.5 -63.5q134 0 198.5 67.5t64.5 222.5v890h284v-911q0 -138 -39.5 -239.5t-111.5 -166t-172 -96.5t-220 -32q-286 0 -436 125t-150 374zM308 1494v85l294 185h213l280 -187v-83h-220l-126 81l-44 69l-49 -67l-133 -83h-215z " />
<glyph unicode="&#xdc;" horiz-adv-x="1376" d="M124 474v946h300v-890q0 -163 70.5 -226.5t211.5 -63.5q134 0 198.5 67.5t64.5 222.5v890h284v-911q0 -138 -39.5 -239.5t-111.5 -166t-172 -96.5t-220 -32q-286 0 -436 125t-150 374zM292 1618q0 54 39.5 87.5t128.5 33.5q85 0 124.5 -33t39.5 -88q0 -53 -39.5 -84 t-124.5 -31q-89 0 -128.5 31t-39.5 84zM764 1618q0 54 39.5 87.5t124.5 33.5q89 0 129 -33t40 -88q0 -53 -40 -84t-129 -31q-85 0 -124.5 31t-39.5 84z" />
<glyph unicode="&#xdd;" horiz-adv-x="1304" d="M-4 1420h356l285 -522l32 -152h10l35 156l273 518h323l-507 -895v-525h-300v523zM487 1525l230 239h350v-63l-354 -176h-226z" />
<glyph unicode="&#xde;" horiz-adv-x="1256" d="M132 0v1420h300v-147q30 2 61.5 3t63.5 1q140 0 258 -17.5t205 -69t136 -143.5t49 -244q0 -134 -46 -228.5t-127 -153t-189.5 -86t-236.5 -27.5h-34q-25 0 -52 1t-51 3t-37 4v-316h-300zM432 582q8 -2 26 -4t38.5 -3t37.5 -2t27 -1q72 0 131.5 8t102.5 34.5t67 72 t24 122.5q0 65 -21.5 104.5t-61 62t-97.5 30.5t-128 8q-42 0 -82 -2t-64 -8v-422z" />
<glyph unicode="&#xdf;" horiz-adv-x="1404" d="M35 828v236h160q0 197 130.5 281.5t367.5 84.5q120 0 204 -21.5t138 -59t78.5 -91t24.5 -119.5q0 -91 -34 -141t-75.5 -84t-74.5 -66.5t-33 -89.5q0 -38 31 -61.5t77.5 -43.5t100.5 -42.5t100.5 -58t78 -89t31.5 -136.5q0 -66 -20 -129.5t-65.5 -114t-121 -82.5 t-185.5 -32q-111 0 -204.5 27t-157.5 66l83 201q27 -14 52 -27t54.5 -22t66 -15t85.5 -6q65 0 97 31t32 84q0 50 -31 79t-78 49t-100.5 37.5t-100 46.5t-78 76.5t-31.5 129.5q0 87 33.5 142t74 93.5t73.5 70.5t33 77q0 20 -5.5 38.5t-26 31.5t-56 20.5t-94.5 7.5 q-108 0 -149.5 -68.5t-41.5 -175.5v-963h-283v828h-160z" />
<glyph unicode="&#xe0;" horiz-adv-x="1173" d="M60 292q0 180 121 272.5t366 92.5q57 0 114 -9t80 -13q5 42 5 73q0 77 -38.5 113t-144.5 36q-97 0 -189 -23t-163 -58l-75 215q91 41 224 67.5t275 26.5q111 0 187 -26.5t120.5 -76t64 -119.5t19.5 -155q0 -103 -8 -204.5t-8 -215.5q0 -77 10 -150t32 -140h-231l-47 158 h-24q-52 -71 -133 -121.5t-209 -50.5q-77 0 -141 22.5t-109.5 64t-71.5 98t-26 123.5zM276 1418v60h298l136 -321h-150zM352 356q0 -73 42 -109t113 -36q95 0 152 44.5t83 92.5v122q-9 4 -31 8t-47 8.5t-50.5 6.5t-46.5 2q-110 0 -162.5 -39.5t-52.5 -99.5z" />
<glyph unicode="&#xe1;" horiz-adv-x="1173" d="M60 292q0 180 121 272.5t366 92.5q57 0 114 -9t80 -13q5 42 5 73q0 77 -38.5 113t-144.5 36q-97 0 -189 -23t-163 -58l-75 215q91 41 224 67.5t275 26.5q111 0 187 -26.5t120.5 -76t64 -119.5t19.5 -155q0 -103 -8 -204.5t-8 -215.5q0 -77 10 -150t32 -140h-231l-47 158 h-24q-52 -71 -133 -121.5t-209 -50.5q-77 0 -141 22.5t-109.5 64t-71.5 98t-26 123.5zM352 356q0 -73 42 -109t113 -36q95 0 152 44.5t83 92.5v122q-9 4 -31 8t-47 8.5t-50.5 6.5t-46.5 2q-110 0 -162.5 -39.5t-52.5 -99.5zM460 1157l122 321h287v-58l-255 -263h-154z" />
<glyph unicode="&#xe2;" horiz-adv-x="1173" d="M60 292q0 180 121 272.5t366 92.5q57 0 114 -9t80 -13q5 42 5 73q0 77 -38.5 113t-144.5 36q-97 0 -189 -23t-163 -58l-75 215q91 41 224 67.5t275 26.5q111 0 187 -26.5t120.5 -76t64 -119.5t19.5 -155q0 -103 -8 -204.5t-8 -215.5q0 -77 10 -150t32 -140h-231l-47 158 h-24q-52 -71 -133 -121.5t-209 -50.5q-77 0 -141 22.5t-109.5 64t-71.5 98t-26 123.5zM231 1143l280 382h186l253 -382h-222l-86 140l-48 130l-51 -128l-106 -142h-206zM352 356q0 -73 42 -109t113 -36q95 0 152 44.5t83 92.5v122q-9 4 -31 8t-47 8.5t-50.5 6.5t-46.5 2 q-110 0 -162.5 -39.5t-52.5 -99.5z" />
<glyph unicode="&#xe3;" horiz-adv-x="1173" d="M60 292q0 180 121 272.5t366 92.5q57 0 114 -9t80 -13q5 42 5 73q0 77 -38.5 113t-144.5 36q-97 0 -189 -23t-163 -58l-75 215q91 41 224 67.5t275 26.5q111 0 187 -26.5t120.5 -76t64 -119.5t19.5 -155q0 -103 -8 -204.5t-8 -215.5q0 -77 10 -150t32 -140h-231l-47 158 h-24q-52 -71 -133 -121.5t-209 -50.5q-77 0 -141 22.5t-109.5 64t-71.5 98t-26 123.5zM217 1372q67 77 125 108t110 31q45 0 86.5 -14.5t82 -33t82 -32t88.5 -13.5q67 0 137 52l35 -152q-60 -68 -115 -95t-106 -27q-46 0 -87.5 15.5t-84.5 32.5t-87 32.5t-92 15.5 q-35 0 -69 -11.5t-75 -43.5zM352 356q0 -73 42 -109t113 -36q95 0 152 44.5t83 92.5v122q-9 4 -31 8t-47 8.5t-50.5 6.5t-46.5 2q-110 0 -162.5 -39.5t-52.5 -99.5z" />
<glyph unicode="&#xe4;" horiz-adv-x="1173" d="M60 292q0 180 121 272.5t366 92.5q57 0 114 -9t80 -13q5 42 5 73q0 77 -38.5 113t-144.5 36q-97 0 -189 -23t-163 -58l-75 215q91 41 224 67.5t275 26.5q111 0 187 -26.5t120.5 -76t64 -119.5t19.5 -155q0 -103 -8 -204.5t-8 -215.5q0 -77 10 -150t32 -140h-231l-47 158 h-24q-52 -71 -133 -121.5t-209 -50.5q-77 0 -141 22.5t-109.5 64t-71.5 98t-26 123.5zM163 1333q0 71 43.5 113t112.5 42t111 -42.5t42 -112.5q0 -61 -42 -104t-111 -43t-112.5 43t-43.5 104zM352 356q0 -73 42 -109t113 -36q95 0 152 44.5t83 92.5v122q-9 4 -31 8t-47 8.5 t-50.5 6.5t-46.5 2q-110 0 -162.5 -39.5t-52.5 -99.5zM675 1333q0 71 42 113t111 42q71 0 112.5 -42.5t41.5 -112.5q0 -61 -41.5 -104t-112.5 -43q-69 0 -111 43t-42 104z" />
<glyph unicode="&#xe5;" horiz-adv-x="1173" d="M60 292q0 180 121 272.5t366 92.5q57 0 114 -9t80 -13q5 42 5 73q0 77 -38.5 113t-144.5 36q-97 0 -189 -23t-163 -58l-75 215q91 41 224 67.5t275 26.5q111 0 187 -26.5t120.5 -76t64 -119.5t19.5 -155q0 -103 -8 -204.5t-8 -215.5q0 -77 10 -150t32 -140h-231l-47 158 h-24q-52 -71 -133 -121.5t-209 -50.5q-77 0 -141 22.5t-109.5 64t-71.5 98t-26 123.5zM351 1348q0 86 61.5 143.5t183.5 57.5q116 0 182 -52t66 -149q0 -38 -17.5 -74t-48.5 -63t-78 -43.5t-104 -16.5q-118 0 -181.5 55t-63.5 142zM352 356q0 -73 42 -109t113 -36 q95 0 152 44.5t83 92.5v122q-9 4 -31 8t-47 8.5t-50.5 6.5t-46.5 2q-110 0 -162.5 -39.5t-52.5 -99.5zM497 1348q0 -34 29.5 -52.5t69.5 -18.5q45 0 74.5 17.5t29.5 53.5q0 39 -31.5 58.5t-72.5 19.5q-40 0 -69.5 -18.5t-29.5 -59.5z" />
<glyph unicode="&#xe6;" horiz-adv-x="1854" d="M60 292q0 180 126 271.5t358 91.5q65 0 121.5 -8t75.5 -12q3 28 4 42t1 29q0 65 -39.5 107t-145.5 42q-93 0 -186 -21t-164 -54l-75 199q89 45 214.5 75.5t266.5 30.5q120 0 191.5 -28.5t124.5 -89.5q58 61 151.5 94.5t202.5 33.5q85 0 168 -21.5t147 -71t103.5 -133.5 t39.5 -210q0 -42 -4 -92t-15 -105h-712q10 -133 82 -201t228 -68q93 0 170 27.5t120 55.5l93 -181q-35 -27 -82.5 -49.5t-105 -39t-121 -27t-131.5 -10.5q-143 0 -259 45.5t-174 153.5h-11q-61 -77 -160.5 -130.5t-254.5 -53.5q-77 0 -141 22.5t-109.5 64t-71.5 98 t-26 123.5zM352 339q0 -61 43 -94.5t112 -33.5q95 0 151 42.5t84 89.5v127q-22 6 -56 14.5t-102 8.5q-116 0 -174 -41.5t-58 -112.5zM1026 631h456q10 115 -39.5 177t-159.5 62q-128 0 -187 -68t-70 -171z" />
<glyph unicode="&#xe7;" horiz-adv-x="1013" d="M85 532q0 265 130.5 414t380.5 149q122 0 200 -19.5t139 -49.5l-70 -227q-52 23 -103.5 33.5t-120.5 10.5q-128 0 -196 -74t-68 -237q0 -66 16.5 -122t50.5 -98.5t87 -66.5t124 -24q86 0 135.5 15t93.5 42l64 -213q-52 -34 -123 -56.5t-148 -33.5l-48 -80 q97 -6 153 -42.5t56 -113.5q0 -49 -25.5 -84.5t-70 -60t-103.5 -36.5t-128 -12q-37 0 -73 2t-75 10l20 96q63 -4 101.5 0.5t59.5 13.5t28.5 22.5t7.5 29.5q0 34 -46.5 52.5t-150.5 22.5l116 180q-114 12 -192 58t-127.5 118t-72 168.5t-22.5 212.5z" />
<glyph unicode="&#xe8;" horiz-adv-x="1203" d="M85 532q0 278 144 420.5t406 142.5q85 0 168 -21.5t148 -71t104.5 -133.5t39.5 -208q0 -42 -5 -93t-18 -106h-709q10 -137 80 -203t228 -66q95 0 171.5 27.5t116.5 55.5l97 -179q-69 -52 -187.5 -90t-253.5 -38q-273 0 -401.5 150t-128.5 413zM318 1418v60h298l136 -321 h-150zM373 631h459q8 111 -41 176t-160 65q-126 0 -187 -68t-71 -173z" />
<glyph unicode="&#xe9;" horiz-adv-x="1203" d="M85 532q0 278 144 420.5t406 142.5q85 0 168 -21.5t148 -71t104.5 -133.5t39.5 -208q0 -42 -5 -93t-18 -106h-709q10 -137 80 -203t228 -66q95 0 171.5 27.5t116.5 55.5l97 -179q-69 -52 -187.5 -90t-253.5 -38q-273 0 -401.5 150t-128.5 413zM373 631h459q8 111 -41 176 t-160 65q-126 0 -187 -68t-71 -173zM543 1157l122 321h287v-58l-255 -263h-154z" />
<glyph unicode="&#xea;" horiz-adv-x="1203" d="M85 532q0 278 144 420.5t406 142.5q85 0 168 -21.5t148 -71t104.5 -133.5t39.5 -208q0 -42 -5 -93t-18 -106h-709q10 -137 80 -203t228 -66q95 0 171.5 27.5t116.5 55.5l97 -179q-69 -52 -187.5 -90t-253.5 -38q-273 0 -401.5 150t-128.5 413zM239 1143l280 382h186 l253 -382h-222l-86 140l-48 130l-51 -128l-106 -142h-206zM373 631h459q8 111 -41 176t-160 65q-126 0 -187 -68t-71 -173z" />
<glyph unicode="&#xeb;" horiz-adv-x="1203" d="M85 532q0 278 144 420.5t406 142.5q85 0 168 -21.5t148 -71t104.5 -133.5t39.5 -208q0 -42 -5 -93t-18 -106h-709q10 -137 80 -203t228 -66q95 0 171.5 27.5t116.5 55.5l97 -179q-69 -52 -187.5 -90t-253.5 -38q-273 0 -401.5 150t-128.5 413zM190 1333q0 71 43.5 113 t112.5 42t111 -42.5t42 -112.5q0 -61 -42 -104t-111 -43t-112.5 43t-43.5 104zM373 631h459q8 111 -41 176t-160 65q-126 0 -187 -68t-71 -173zM702 1333q0 71 42 113t111 42q71 0 112.5 -42.5t41.5 -112.5q0 -61 -41.5 -104t-112.5 -43q-69 0 -111 43t-42 104z" />
<glyph unicode="&#xec;" horiz-adv-x="642" d="M-14 1418v60h298l136 -321h-150zM180 0v1064h284v-1064h-284z" />
<glyph unicode="&#xed;" horiz-adv-x="642" d="M170 1157l122 321h287v-58l-255 -263h-154zM180 0v1064h284v-1064h-284z" />
<glyph unicode="&#xee;" horiz-adv-x="642" d="M-36 1143l280 382h186l253 -382h-222l-86 140l-48 130l-51 -128l-106 -142h-206zM180 0v1064h284v-1064h-284z" />
<glyph unicode="&#xef;" horiz-adv-x="642" d="M-87 1333q0 71 43.5 113t112.5 42t111 -42.5t42 -112.5q0 -61 -42 -104t-111 -43t-112.5 43t-43.5 104zM180 0v1064h284v-1064h-284zM425 1333q0 71 42 113t111 42q71 0 112.5 -42.5t41.5 -112.5q0 -61 -41.5 -104t-112.5 -43q-69 0 -111 43t-42 104z" />
<glyph unicode="&#xf0;" horiz-adv-x="1302" d="M85 501q0 118 39.5 214t111.5 163.5t171.5 104.5t219.5 37q85 0 158.5 -24.5t133.5 -70.5q-35 97 -99 164.5t-145 110.5l-103 -134l-114 83l82 104q-47 12 -91.5 18t-90.5 10l110 166q101 -11 195 -36l71 92l108 -87l-43 -58q112 -54 191.5 -132.5t130.5 -171.5 t74.5 -193.5t23.5 -199.5q0 -168 -42.5 -296.5t-119 -216.5t-183 -133.5t-233.5 -45.5q-138 0 -241.5 40t-173.5 109.5t-105.5 168t-35.5 214.5zM358 493q0 -142 81.5 -214t217.5 -72q66 0 119.5 26t93 74.5t60.5 117t21 151.5q0 27 -3.5 64t-10.5 64q-55 40 -129 59.5 t-147 19.5q-145 0 -224 -81t-79 -209z" />
<glyph unicode="&#xf1;" horiz-adv-x="1292" d="M146 0v1064h223l30 -151h31q52 75 139.5 128.5t227.5 53.5q85 0 151 -21.5t109.5 -73.5t66.5 -139t23 -218v-643h-284v584q0 138 -42.5 198.5t-149.5 60.5q-91 0 -155 -49.5t-88 -126.5q0 -166 1 -333.5t1 -333.5h-284zM272 1372q67 77 125 108t110 31q45 0 86.5 -14.5 t82 -33t82 -32t88.5 -13.5q67 0 137 52l35 -152q-60 -68 -115 -95t-106 -27q-46 0 -87.5 15.5t-84.5 32.5t-87 32.5t-92 15.5q-35 0 -69 -11.5t-75 -43.5z" />
<glyph unicode="&#xf2;" horiz-adv-x="1248" d="M85 532q0 263 140 413t400 150q135 0 236.5 -42.5t168.5 -119t100.5 -179t33.5 -222.5q0 -130 -36.5 -234.5t-105.5 -177.5t-169.5 -112t-227.5 -39q-138 0 -239.5 42.5t-168.5 119t-99.5 179t-32.5 222.5zM326 1418v60h298l136 -321h-150zM377 532q0 -68 14.5 -127 t43.5 -102.5t75.5 -69.5t114.5 -26q247 0 247 325q0 71 -13.5 130.5t-42.5 103t-77 67.5t-114 24q-116 0 -182 -76.5t-66 -248.5z" />
<glyph unicode="&#xf3;" horiz-adv-x="1248" d="M85 532q0 263 140 413t400 150q135 0 236.5 -42.5t168.5 -119t100.5 -179t33.5 -222.5q0 -130 -36.5 -234.5t-105.5 -177.5t-169.5 -112t-227.5 -39q-138 0 -239.5 42.5t-168.5 119t-99.5 179t-32.5 222.5zM377 532q0 -68 14.5 -127t43.5 -102.5t75.5 -69.5t114.5 -26 q247 0 247 325q0 71 -13.5 130.5t-42.5 103t-77 67.5t-114 24q-116 0 -182 -76.5t-66 -248.5zM545 1157l122 321h287v-58l-255 -263h-154z" />
<glyph unicode="&#xf4;" horiz-adv-x="1248" d="M85 532q0 263 140 413t400 150q135 0 236.5 -42.5t168.5 -119t100.5 -179t33.5 -222.5q0 -130 -36.5 -234.5t-105.5 -177.5t-169.5 -112t-227.5 -39q-138 0 -239.5 42.5t-168.5 119t-99.5 179t-32.5 222.5zM266 1143l280 382h186l253 -382h-222l-86 140l-48 130l-51 -128 l-106 -142h-206zM377 532q0 -68 14.5 -127t43.5 -102.5t75.5 -69.5t114.5 -26q247 0 247 325q0 71 -13.5 130.5t-42.5 103t-77 67.5t-114 24q-116 0 -182 -76.5t-66 -248.5z" />
<glyph unicode="&#xf5;" horiz-adv-x="1248" d="M85 532q0 263 140 413t400 150q135 0 236.5 -42.5t168.5 -119t100.5 -179t33.5 -222.5q0 -130 -36.5 -234.5t-105.5 -177.5t-169.5 -112t-227.5 -39q-138 0 -239.5 42.5t-168.5 119t-99.5 179t-32.5 222.5zM252 1372q67 77 125 108t110 31q45 0 86.5 -14.5t82 -33t82 -32 t88.5 -13.5q67 0 137 52l35 -152q-60 -68 -115 -95t-106 -27q-46 0 -87.5 15.5t-84.5 32.5t-87 32.5t-92 15.5q-35 0 -69 -11.5t-75 -43.5zM377 532q0 -68 14.5 -127t43.5 -102.5t75.5 -69.5t114.5 -26q247 0 247 325q0 71 -13.5 130.5t-42.5 103t-77 67.5t-114 24 q-116 0 -182 -76.5t-66 -248.5z" />
<glyph unicode="&#xf6;" horiz-adv-x="1248" d="M85 532q0 263 140 413t400 150q135 0 236.5 -42.5t168.5 -119t100.5 -179t33.5 -222.5q0 -130 -36.5 -234.5t-105.5 -177.5t-169.5 -112t-227.5 -39q-138 0 -239.5 42.5t-168.5 119t-99.5 179t-32.5 222.5zM215 1333q0 71 43.5 113t112.5 42t111 -42.5t42 -112.5 q0 -61 -42 -104t-111 -43t-112.5 43t-43.5 104zM377 532q0 -68 14.5 -127t43.5 -102.5t75.5 -69.5t114.5 -26q247 0 247 325q0 71 -13.5 130.5t-42.5 103t-77 67.5t-114 24q-116 0 -182 -76.5t-66 -248.5zM727 1333q0 71 42 113t111 42q71 0 112.5 -42.5t41.5 -112.5 q0 -61 -41.5 -104t-112.5 -43q-69 0 -111 43t-42 104z" />
<glyph unicode="&#xf7;" horiz-adv-x="1157" d="M95 561v244h967v-244h-967zM402 276q0 75 48.5 117.5t127.5 42.5q81 0 129.5 -43t48.5 -117q0 -71 -48.5 -115.5t-129.5 -44.5q-79 0 -127.5 44.5t-48.5 115.5zM402 1091q0 75 48.5 117.5t127.5 42.5q81 0 129.5 -42.5t48.5 -117.5q0 -71 -48.5 -115.5t-129.5 -44.5 q-79 0 -127.5 44.5t-48.5 115.5z" />
<glyph unicode="&#xf8;" horiz-adv-x="1250" d="M85 532q0 129 36.5 233.5t105.5 177.5t169.5 112.5t228.5 39.5q75 0 139 -13.5t116 -35.5l59 76l170 -137l-61 -70q59 -75 88.5 -172t29.5 -211q0 -130 -36.5 -234.5t-105.5 -177.5t-169.5 -112t-229.5 -39q-159 0 -273 58l-58 -76l-176 136l68 81q-52 72 -76.5 164 t-24.5 200zM377 532q0 -80 22 -151l351 445q-54 32 -125 31q-114 0 -181 -77.5t-67 -247.5zM493 244q51 -37 132 -37q249 0 249 325q0 46 -8.5 88.5t-20.5 77.5z" />
<glyph unicode="&#xf9;" horiz-adv-x="1300" d="M146 414v650h284v-590q0 -131 36.5 -192t139.5 -61q89 0 150 46.5t89 117.5v679h285v-739q0 -85 8.5 -170.5t25.5 -154.5h-209l-55 166h-22q-52 -85 -149.5 -141t-223.5 -56q-87 0 -154 22.5t-112.5 74.5t-69 137t-23.5 211zM312 1418v60h298l136 -321h-150z" />
<glyph unicode="&#xfa;" horiz-adv-x="1300" d="M146 414v650h284v-590q0 -131 36.5 -192t139.5 -61q89 0 150 46.5t89 117.5v679h285v-739q0 -85 8.5 -170.5t25.5 -154.5h-209l-55 166h-22q-52 -85 -149.5 -141t-223.5 -56q-87 0 -154 22.5t-112.5 74.5t-69 137t-23.5 211zM529 1157l122 321h287v-58l-255 -263h-154z " />
<glyph unicode="&#xfb;" horiz-adv-x="1300" d="M146 414v650h284v-590q0 -131 36.5 -192t139.5 -61q89 0 150 46.5t89 117.5v679h285v-739q0 -85 8.5 -170.5t25.5 -154.5h-209l-55 166h-22q-52 -85 -149.5 -141t-223.5 -56q-87 0 -154 22.5t-112.5 74.5t-69 137t-23.5 211zM284 1143l280 382h186l253 -382h-222l-86 140 l-48 130l-51 -128l-106 -142h-206z" />
<glyph unicode="&#xfc;" horiz-adv-x="1300" d="M146 414v650h284v-590q0 -131 36.5 -192t139.5 -61q89 0 150 46.5t89 117.5v679h285v-739q0 -85 8.5 -170.5t25.5 -154.5h-209l-55 166h-22q-52 -85 -149.5 -141t-223.5 -56q-87 0 -154 22.5t-112.5 74.5t-69 137t-23.5 211zM231 1333q0 71 43.5 113t112.5 42t111 -42.5 t42 -112.5q0 -61 -42 -104t-111 -43t-112.5 43t-43.5 104zM743 1333q0 71 42 113t111 42q71 0 112.5 -42.5t41.5 -112.5q0 -61 -41.5 -104t-112.5 -43q-69 0 -111 43t-42 104z" />
<glyph unicode="&#xfd;" horiz-adv-x="1095" d="M-25 1064h344l217 -590l44 -170h20l39 170l180 590h290l-353 -963q-44 -120 -83.5 -215t-86 -162t-104.5 -102.5t-137 -35.5q-53 0 -100.5 9.5t-82.5 27.5l59 219q30 -10 63 -10q29 0 55 6t48.5 23t41.5 49t33 84zM487 1157l122 321h287v-58l-255 -263h-154z" />
<glyph unicode="&#xfe;" horiz-adv-x="1262" d="M146 -406v1826h284v-453h24q51 55 118 91.5t176 36.5q215 0 322.5 -126.5t107.5 -409.5q0 -135 -34.5 -244.5t-100.5 -186t-164.5 -118t-226.5 -41.5q-71 0 -119.5 12.5t-102.5 36.5v-424h-284zM430 269q34 -30 76.5 -46t108.5 -16q137 0 204 86t67 274q0 136 -51.5 213 t-173.5 77q-174 0 -231 -180v-408z" />
<glyph unicode="&#xff;" horiz-adv-x="1095" d="M-25 1064h344l217 -590l44 -170h20l39 170l180 590h290l-353 -963q-44 -120 -83.5 -215t-86 -162t-104.5 -102.5t-137 -35.5q-53 0 -100.5 9.5t-82.5 27.5l59 219q30 -10 63 -10q29 0 55 6t48.5 23t41.5 49t33 84zM154 1333q0 71 43.5 113t112.5 42t111 -42.5t42 -112.5 q0 -61 -42 -104t-111 -43t-112.5 43t-43.5 104zM666 1333q0 71 42 113t111 42q71 0 112.5 -42.5t41.5 -112.5q0 -61 -41.5 -104t-112.5 -43q-69 0 -111 43t-42 104z" />
<glyph unicode="&#x152;" horiz-adv-x="2012" d="M81 710q0 174 44.5 311.5t129 232t207 144t279.5 49.5q89 0 149.5 -8.5t107.5 -18.5h914v-265h-614v-308h557v-263h-557v-321h625v-263h-925q-20 -6 -50.5 -12t-65.5 -9.5t-71.5 -5.5t-69.5 -2q-167 0 -290.5 54t-206 151t-123 233t-40.5 301zM399 710 q0 -105 19.5 -192.5t62 -150.5t109.5 -97t162 -34q66 0 123.5 6.5t122.5 33.5v856q-47 22 -114 37t-150 15q-159 0 -247 -114.5t-88 -359.5z" />
<glyph unicode="&#x153;" horiz-adv-x="1981" d="M85 532q0 267 140 415t400 148q75 0 136.5 -14.5t110.5 -36.5t86.5 -50.5t65.5 -54.5q56 62 150.5 109t241.5 47q85 0 167.5 -21.5t146.5 -71t103.5 -133.5t39.5 -208q0 -44 -5 -94t-17 -105h-706q8 -133 80.5 -200t229.5 -67q89 0 165.5 25.5t118.5 50.5l95 -176 q-69 -50 -185 -88t-250 -38q-254 0 -387 159h-16q-56 -70 -146 -114.5t-221 -44.5q-140 0 -242.5 42.5t-169.5 117t-99.5 178t-32.5 225.5zM377 532q0 -68 14.5 -127.5t43.5 -103.5t75.5 -69t114.5 -25q123 0 185 79t62 246q0 73 -13.5 132.5t-42.5 102t-77 66.5t-114 24 q-116 0 -182 -76.5t-66 -248.5zM1153 631h459q8 115 -42.5 177t-158.5 62q-128 0 -187.5 -64t-70.5 -175z" />
<glyph unicode="&#x178;" horiz-adv-x="1304" d="M-4 1420h356l285 -522l32 -152h10l35 156l273 518h323l-507 -895v-525h-300v523zM256 1618q0 54 39.5 87.5t128.5 33.5q85 0 124.5 -33t39.5 -88q0 -53 -39.5 -84t-124.5 -31q-89 0 -128.5 31t-39.5 84zM728 1618q0 54 39.5 87.5t124.5 33.5q89 0 129 -33t40 -88 q0 -53 -40 -84t-129 -31q-85 0 -124.5 31t-39.5 84z" />
<glyph unicode="&#x2c6;" horiz-adv-x="994" d="M142 1143l280 382h186l253 -382h-222l-86 140l-48 130l-51 -128l-106 -142h-206z" />
<glyph unicode="&#x2dc;" horiz-adv-x="1010" d="M136 1372q67 77 125 108t110 31q45 0 86.5 -14.5t82 -33t82 -32t88.5 -13.5q67 0 137 52l35 -152q-60 -68 -115 -95t-106 -27q-46 0 -87.5 15.5t-84.5 32.5t-87 32.5t-92 15.5q-35 0 -69 -11.5t-75 -43.5z" />
<glyph unicode="&#x2000;" horiz-adv-x="882" />
<glyph unicode="&#x2001;" horiz-adv-x="1764" />
<glyph unicode="&#x2002;" horiz-adv-x="882" />
<glyph unicode="&#x2003;" horiz-adv-x="1764" />
<glyph unicode="&#x2004;" horiz-adv-x="588" />
<glyph unicode="&#x2005;" horiz-adv-x="441" />
<glyph unicode="&#x2006;" horiz-adv-x="294" />
<glyph unicode="&#x2007;" horiz-adv-x="294" />
<glyph unicode="&#x2008;" horiz-adv-x="220" />
<glyph unicode="&#x2009;" horiz-adv-x="352" />
<glyph unicode="&#x200a;" horiz-adv-x="98" />
<glyph unicode="&#x2010;" horiz-adv-x="792" d="M120 458v252h553v-252h-553z" />
<glyph unicode="&#x2011;" horiz-adv-x="792" d="M120 458v252h553v-252h-553z" />
<glyph unicode="&#x2012;" horiz-adv-x="792" d="M120 458v252h553v-252h-553z" />
<glyph unicode="&#x2013;" horiz-adv-x="1455" d="M242 456v256h973v-256h-973z" />
<glyph unicode="&#x2014;" horiz-adv-x="1805" d="M240 456v256h1327v-256h-1327z" />
<glyph unicode="&#x2018;" horiz-adv-x="492" d="M85 1298q0 85 27.5 142.5t66 95t81 58t73.5 30.5l66 -115q-45 -16 -74 -49.5t-33 -74.5q43 2 80.5 -34.5t37.5 -97.5q0 -60 -43.5 -97t-109.5 -37q-79 0 -125.5 49t-46.5 130z" />
<glyph unicode="&#x2019;" horiz-adv-x="494" d="M85 1302q0 60 42.5 97.5t108.5 37.5q81 0 127.5 -50.5t46.5 -129.5q0 -85 -28 -143t-67 -96.5t-80.5 -59.5t-72.5 -29l-71 119q45 16 77.5 46t36.5 76q-43 -4 -81.5 30.5t-38.5 101.5z" />
<glyph unicode="&#x201a;" horiz-adv-x="494" d="M85 126q0 60 42.5 97.5t108.5 37.5q81 0 127.5 -50.5t46.5 -129.5q0 -85 -28 -143t-67 -96.5t-80.5 -60t-72.5 -29.5l-71 120q45 16 77.5 46t36.5 76q-43 -4 -81.5 30t-38.5 102z" />
<glyph unicode="&#x201c;" horiz-adv-x="869" d="M85 1298q0 85 27.5 142.5t66 95t81 58t73.5 30.5l66 -115q-45 -16 -74 -49.5t-33 -74.5q43 2 80.5 -34.5t37.5 -97.5q0 -60 -43.5 -97t-109.5 -37q-79 0 -125.5 49t-46.5 130zM462 1298q0 85 27.5 142.5t66 95t81 58t73.5 30.5l66 -115q-44 -16 -73.5 -49.5t-33.5 -74.5 q43 2 80.5 -34.5t37.5 -97.5q0 -60 -43.5 -97t-108.5 -37q-80 0 -126.5 49t-46.5 130z" />
<glyph unicode="&#x201d;" horiz-adv-x="871" d="M85 1300q0 60 42.5 98t108.5 38q81 0 127.5 -50.5t46.5 -130.5q0 -85 -28 -143t-67 -96.5t-80.5 -59.5t-72.5 -29l-71 119q45 16 77.5 46t36.5 76q-43 -4 -81.5 30.5t-38.5 101.5zM462 1300q0 60 42.5 98t107.5 38q81 0 128 -50.5t47 -130.5q0 -85 -27.5 -143 t-67.5 -96.5t-81.5 -59.5t-70.5 -29l-72 119q45 16 77.5 46t36.5 76q-42 -4 -81 30.5t-39 101.5z" />
<glyph unicode="&#x201e;" horiz-adv-x="871" d="M85 126q0 60 42.5 97.5t108.5 37.5q81 0 127.5 -50.5t46.5 -129.5q0 -85 -28 -143t-67 -96.5t-80.5 -60t-72.5 -29.5l-71 120q45 16 77.5 46t36.5 76q-43 -4 -81.5 30t-38.5 102zM462 126q0 60 42.5 97.5t107.5 37.5q81 0 128 -50.5t47 -129.5q0 -85 -27.5 -143 t-67.5 -96.5t-81.5 -60t-70.5 -29.5l-72 120q45 16 77.5 46t36.5 76q-42 -4 -81 30t-39 102z" />
<glyph unicode="&#x2022;" horiz-adv-x="996" d="M162 631q0 69 27.5 126.5t73 99t106.5 64.5t128 23q69 0 130.5 -21t107 -62.5t73.5 -99t28 -130.5q0 -74 -28 -130t-73.5 -97t-107.5 -62t-130 -21q-67 0 -128 21t-106.5 62t-73 97t-27.5 130z" />
<glyph unicode="&#x2026;" horiz-adv-x="1739" d="M114 138q0 75 48.5 117.5t127.5 42.5q81 0 129.5 -42.5t48.5 -117.5q0 -72 -48.5 -116.5t-129.5 -44.5q-79 0 -127.5 44.5t-48.5 116.5zM693 138q0 75 49 117.5t128 42.5q81 0 129.5 -42.5t48.5 -117.5q0 -72 -48.5 -116.5t-129.5 -44.5q-79 0 -128 44.5t-49 116.5z M1275 138q0 75 48.5 117.5t127.5 42.5q82 0 131 -42.5t49 -117.5q0 -72 -49 -116.5t-131 -44.5q-79 0 -127.5 44.5t-48.5 116.5z" />
<glyph unicode="&#x202f;" horiz-adv-x="352" />
<glyph unicode="&#x2039;" horiz-adv-x="674" d="M65 525l353 466l160 -144l-176 -237l-106 -83l106 -73l192 -231l-164 -146z" />
<glyph unicode="&#x203a;" horiz-adv-x="674" d="M81 847l165 144l366 -447l-353 -467l-164 142l181 239l105 84l-105 73z" />
<glyph unicode="&#x205f;" horiz-adv-x="441" />
<glyph unicode="&#x20ac;" d="M-23 464l70 191h109v55v32q0 16 2 30h-181l70 191h139q33 136 96 226t147 148t183.5 84t204.5 26q118 0 208 -17t149 -39l-79 -223q-47 20 -111.5 31.5t-149.5 11.5q-128 0 -223.5 -59t-144.5 -189h566l-57 -191h-551q-2 -14 -2 -30v-32v-55h509l-57 -191h-414 q47 -125 143.5 -190t251.5 -65q95 0 161.5 21t119.5 52l58 -220q-35 -24 -79.5 -41t-96 -28t-104.5 -16.5t-101 -5.5q-120 0 -222 30t-184 89.5t-140 151t-87 222.5h-203z" />
<glyph unicode="&#x2122;" horiz-adv-x="2083" d="M60 1182v238h803v-238h-259v-493h-283v493h-261zM942 689v731h287l201 -309l52 -128h2l56 132l186 305h284v-731h-248v288l35 209h-13l-79 -172l-150 -234h-170l-152 226l-86 180h-11l54 -207v-290h-248z" />
<glyph unicode="&#xe000;" horiz-adv-x="1064" d="M0 0v1064h1064v-1064h-1064z" />
</font>
</defs>
</svg>
